# WaveFront *.obj file (generated by Autodesk ATF)

mtllib 136. Шайба.mtl

g Твердое тело1

v -21.519246 -4.574057 -2.250000
v -21.519246 -4.574057 2.250000
v -21.519246 4.574057 -2.250000
v -21.519246 4.574057 2.250000
v -17.798374 -12.931275 -2.250000
v -17.798374 -12.931275 2.250000
v -17.798374 12.931275 -2.250000
v -17.798374 12.931275 2.250000
v -12.500000 0.000000 -2.250000
v -12.500000 0.000000 2.250000
v -11.000000 -19.052559 -2.250000
v -11.000000 -19.052559 2.250000
v -11.000000 19.052559 -2.250000
v -11.000000 19.052559 2.250000
v -10.825318 -6.250000 -2.250000
v -10.825318 -6.250000 2.250000
v -10.825318 6.250000 -2.250000
v -10.825318 6.250000 2.250000
v -6.250000 -10.825318 -2.250000
v -6.250000 -10.825318 2.250000
v -6.250000 10.825318 -2.250000
v -6.250000 10.825318 2.250000
v -2.299626 -21.879482 -2.250000
v -2.299626 -21.879482 2.250000
v -2.299626 21.879482 -2.250000
v -2.299626 21.879482 2.250000
v 0.000000 -12.500000 -2.250000
v 0.000000 -12.500000 2.250000
v 0.000000 12.500000 -2.250000
v 0.000000 12.500000 2.250000
v 6.250000 -10.825318 -2.250000
v 6.250000 -10.825318 2.250000
v 6.250000 10.825318 -2.250000
v 6.250000 10.825318 2.250000
v 6.798374 -20.923243 -2.250000
v 6.798374 -20.923243 2.250000
v 6.798374 20.923243 -2.250000
v 6.798374 20.923243 2.250000
v 10.825318 -6.250000 -2.250000
v 10.825318 -6.250000 2.250000
v 10.825318 6.250000 -2.250000
v 10.825318 6.250000 2.250000
v 12.500000 0.000000 -2.250000
v 12.500000 0.000000 2.250000
v 14.720874 -16.349186 -2.250000
v 14.720874 -16.349186 2.250000
v 14.720874 16.349186 -2.250000
v 14.720874 16.349186 2.250000
v 20.098000 -8.948206 -2.250000
v 20.098000 -8.948206 2.250000
v 20.098000 8.948206 -2.250000
v 20.098000 8.948206 2.250000
v 22.000000 0.000000 -2.250000
v 22.000000 0.000000 2.250000
vt -2.200000 0.000000 0.000000
vt -2.009800 -0.894821 0.000000
vt -1.472087 -1.634919 0.000000
vt -0.679837 -2.092324 0.000000
vt 0.229963 -2.187948 0.000000
vt 1.100000 -1.905256 0.000000
vt 1.779837 -1.293128 0.000000
vt 2.151925 -0.457406 0.000000
vt 2.151925 0.457406 0.000000
vt 1.779837 1.293128 0.000000
vt 1.100000 1.905256 0.000000
vt 0.229963 2.187948 0.000000
vt -0.679837 2.092324 0.000000
vt -1.472087 1.634919 0.000000
vt -2.009800 0.894821 0.000000
vt -1.250000 0.000000 0.000000
vt -1.082532 0.625000 0.000000
vt -0.625000 1.082532 0.000000
vt -0.000000 1.250000 0.000000
vt 0.625000 1.082532 0.000000
vt 1.082532 0.625000 0.000000
vt 1.250000 0.000000 0.000000
vt 1.082532 -0.625000 0.000000
vt 0.625000 -1.082532 0.000000
vt -0.000000 -1.250000 0.000000
vt -0.625000 -1.082532 0.000000
vt -1.082532 -0.625000 0.000000
vt -0.225000 3.926991 0.000000
vt -0.225000 3.272492 0.000000
vt -0.225000 2.617994 0.000000
vt -0.225000 1.963495 0.000000
vt -0.225000 1.308997 0.000000
vt -0.225000 0.654498 0.000000
vt -0.225000 0.000000 0.000000
vt -0.225000 -0.654498 0.000000
vt -0.225000 -1.308997 0.000000
vt -0.225000 -1.963495 0.000000
vt -0.225000 -2.617994 0.000000
vt -0.225000 -3.272492 0.000000
vt 0.225000 -3.926991 0.000000
vt 0.225000 -3.272492 0.000000
vt 0.225000 -2.617994 0.000000
vt 0.225000 -1.963495 0.000000
vt 0.225000 -1.308997 0.000000
vt 0.225000 -0.654498 0.000000
vt 0.225000 0.000000 0.000000
vt 0.225000 0.654498 0.000000
vt 0.225000 1.308997 0.000000
vt 0.225000 1.963495 0.000000
vt 0.225000 2.617994 0.000000
vt 0.225000 3.272492 0.000000
vt 0.225000 3.926991 0.000000
vt -0.225000 -3.926991 0.000000
vt 0.225000 0.000000 0.000000
vt 0.225000 0.921534 0.000000
vt 0.225000 1.843068 0.000000
vt 0.225000 2.764602 0.000000
vt 0.225000 3.686136 0.000000
vt 0.225000 4.607669 0.000000
vt 0.225000 5.529203 0.000000
vt 0.225000 6.450737 0.000000
vt 0.225000 -6.450737 0.000000
vt 0.225000 -5.529203 0.000000
vt 0.225000 -4.607669 0.000000
vt 0.225000 -3.686136 0.000000
vt 0.225000 -2.764602 0.000000
vt 0.225000 -1.843068 0.000000
vt 0.225000 -0.921534 0.000000
vt -0.225000 0.000000 0.000000
vt -0.225000 -0.921534 0.000000
vt -0.225000 -1.843068 0.000000
vt -0.225000 -2.764602 0.000000
vt -0.225000 -3.686136 0.000000
vt -0.225000 -4.607669 0.000000
vt -0.225000 -5.529203 0.000000
vt -0.225000 7.372271 0.000000
vt -0.225000 6.450737 0.000000
vt -0.225000 5.529203 0.000000
vt -0.225000 4.607669 0.000000
vt -0.225000 3.686136 0.000000
vt -0.225000 2.764602 0.000000
vt -0.225000 1.843068 0.000000
vt -0.225000 0.921534 0.000000
vt -0.225000 -6.450737 0.000000
vt -0.225000 -6.450737 0.000000
vt 0.225000 7.372271 0.000000
vt 0.225000 7.372271 0.000000
vt 2.200000 0.000000 0.000000
vt 2.009800 0.894821 0.000000
vt 1.472087 1.634919 0.000000
vt 0.679837 2.092324 0.000000
vt -0.229963 2.187948 0.000000
vt -1.100000 1.905256 0.000000
vt -1.779837 1.293128 0.000000
vt -2.151925 0.457406 0.000000
vt -2.151925 -0.457406 0.000000
vt -1.779837 -1.293128 0.000000
vt -1.100000 -1.905256 0.000000
vt -0.229963 -2.187948 0.000000
vt 0.679837 -2.092324 0.000000
vt 1.472087 -1.634919 0.000000
vt 2.009800 -0.894821 0.000000
vt 1.250000 0.000000 0.000000
vt 1.082532 -0.625000 0.000000
vt 0.625000 -1.082532 0.000000
vt 0.000000 -1.250000 0.000000
vt -0.625000 -1.082532 0.000000
vt -1.082532 -0.625000 0.000000
vt -1.250000 0.000000 0.000000
vt -1.082532 0.625000 0.000000
vt -0.625000 1.082532 0.000000
vt 0.000000 1.250000 0.000000
vt 0.625000 1.082532 0.000000
vt 1.082532 0.625000 0.000000
vn 0.000000 0.000000 -0.100000
vn 0.000000 0.000000 -0.100000
vn 0.000000 0.000000 -0.100000
vn 0.000000 0.000000 -0.100000
vn 0.000000 0.000000 -0.100000
vn 0.000000 0.000000 -0.100000
vn 0.000000 0.000000 -0.100000
vn 0.000000 0.000000 -0.100000
vn 0.000000 0.000000 -0.100000
vn 0.000000 0.000000 -0.100000
vn 0.000000 0.000000 -0.100000
vn 0.000000 0.000000 -0.100000
vn 0.000000 0.000000 -0.100000
vn 0.000000 0.000000 -0.100000
vn 0.000000 0.000000 -0.100000
vn 0.000000 0.000000 -0.100000
vn 0.000000 0.000000 -0.100000
vn 0.000000 0.000000 -0.100000
vn 0.000000 0.000000 -0.100000
vn 0.000000 0.000000 -0.100000
vn 0.000000 0.000000 -0.100000
vn 0.000000 0.000000 -0.100000
vn 0.000000 0.000000 -0.100000
vn 0.000000 0.000000 -0.100000
vn 0.000000 0.000000 -0.100000
vn 0.000000 0.000000 -0.100000
vn 0.000000 0.000000 -0.100000
vn -0.100000 0.000000 0.000000
vn -0.086603 0.050000 0.000000
vn -0.050000 0.086603 0.000000
vn 0.000000 0.100000 0.000000
vn 0.050000 0.086603 0.000000
vn 0.086603 0.050000 0.000000
vn 0.100000 0.000000 0.000000
vn 0.086603 -0.050000 0.000000
vn 0.050000 -0.086603 0.000000
vn 0.000000 -0.100000 0.000000
vn -0.050000 -0.086603 0.000000
vn -0.086603 -0.050000 0.000000
vn -0.100000 0.000000 0.000000
vn -0.086603 -0.050000 0.000000
vn -0.050000 -0.086603 0.000000
vn 0.000000 -0.100000 0.000000
vn 0.050000 -0.086603 0.000000
vn 0.086603 -0.050000 0.000000
vn 0.100000 0.000000 0.000000
vn 0.086603 0.050000 0.000000
vn 0.050000 0.086603 0.000000
vn 0.000000 0.100000 0.000000
vn -0.050000 0.086603 0.000000
vn -0.086603 0.050000 0.000000
vn -0.100000 0.000000 0.000000
vn -0.100000 0.000000 0.000000
vn 0.100000 0.000000 0.000000
vn 0.091355 0.040674 0.000000
vn 0.066913 0.074314 0.000000
vn 0.030902 0.095106 0.000000
vn -0.010453 0.099452 0.000000
vn -0.050000 0.086603 0.000000
vn -0.080902 0.058779 0.000000
vn -0.097815 0.020791 0.000000
vn -0.097815 -0.020791 0.000000
vn -0.080902 -0.058779 0.000000
vn -0.050000 -0.086603 0.000000
vn -0.010453 -0.099452 0.000000
vn 0.030902 -0.095106 0.000000
vn 0.066913 -0.074314 0.000000
vn 0.091355 -0.040674 0.000000
vn 0.100000 0.000000 0.000000
vn 0.091355 -0.040674 0.000000
vn 0.066913 -0.074314 0.000000
vn 0.030902 -0.095106 0.000000
vn -0.010453 -0.099452 0.000000
vn -0.050000 -0.086603 0.000000
vn -0.080902 -0.058779 0.000000
vn -0.097815 -0.020791 0.000000
vn -0.097815 0.020791 0.000000
vn -0.080902 0.058779 0.000000
vn -0.050000 0.086603 0.000000
vn -0.010453 0.099452 0.000000
vn 0.030902 0.095106 0.000000
vn 0.066913 0.074314 0.000000
vn 0.091355 0.040674 0.000000
vn -0.097815 -0.020791 0.000000
vn -0.097815 -0.020791 0.000000
vn -0.097815 -0.020791 0.000000
vn -0.097815 -0.020791 0.000000
vn 0.000000 0.000000 0.100000
vn 0.000000 0.000000 0.100000
vn 0.000000 0.000000 0.100000
vn 0.000000 0.000000 0.100000
vn 0.000000 0.000000 0.100000
vn 0.000000 0.000000 0.100000
vn 0.000000 0.000000 0.100000
vn 0.000000 0.000000 0.100000
vn 0.000000 0.000000 0.100000
vn 0.000000 0.000000 0.100000
vn 0.000000 0.000000 0.100000
vn 0.000000 0.000000 0.100000
vn 0.000000 0.000000 0.100000
vn 0.000000 0.000000 0.100000
vn 0.000000 0.000000 0.100000
vn 0.000000 0.000000 0.100000
vn 0.000000 0.000000 0.100000
vn 0.000000 0.000000 0.100000
vn 0.000000 0.000000 0.100000
vn 0.000000 0.000000 0.100000
vn 0.000000 0.000000 0.100000
vn 0.000000 0.000000 0.100000
vn 0.000000 0.000000 0.100000
vn 0.000000 0.000000 0.100000
vn 0.000000 0.000000 0.100000
vn 0.000000 0.000000 0.100000
vn 0.000000 0.000000 0.100000
usemtl 191,191,191
f 51/15/15 53/1/1 43/16/16
f 43/16/16 53/1/1 49/2/2
f 43/16/16 49/2/2 39/27/27
f 39/27/27 49/2/2 45/3/3
f 39/27/27 45/3/3 31/26/26
f 31/26/26 45/3/3 35/4/4
f 31/26/26 35/4/4 27/25/25
f 27/25/25 35/4/4 23/5/5
f 27/25/25 23/5/5 19/24/24
f 19/24/24 23/5/5 11/6/6
f 19/24/24 11/6/6 5/7/7
f 19/24/24 5/7/7 15/23/23
f 15/23/23 5/7/7 1/8/8
f 15/23/23 1/8/8 9/22/22
f 9/22/22 1/8/8 3/9/9
f 9/22/22 3/9/9 17/21/21
f 17/21/21 3/9/9 7/10/10
f 17/21/21 7/10/10 21/20/20
f 21/20/20 7/10/10 13/11/11
f 21/20/20 13/11/11 25/12/12
f 21/20/20 25/12/12 29/19/19
f 29/19/19 25/12/12 37/13/13
f 29/19/19 37/13/13 33/18/18
f 33/18/18 37/13/13 47/14/14
f 33/18/18 47/14/14 41/17/17
f 41/17/17 47/14/14 51/15/15
f 41/17/17 51/15/15 43/16/16
f 39/29/29 40/51/51 43/28/28
f 43/28/28 40/51/51 44/52/52
f 43/53/53 44/40/40 41/39/39
f 41/39/39 44/40/40 42/41/41
f 41/39/39 42/41/41 34/42/42
f 39/29/29 31/30/30 40/51/51
f 40/51/51 31/30/30 32/50/50
f 32/50/50 31/30/30 27/31/31
f 32/50/50 27/31/31 28/49/49
f 28/49/49 27/31/31 19/32/32
f 28/49/49 19/32/32 20/48/48
f 20/48/48 19/32/32 15/33/33
f 20/48/48 15/33/33 16/47/47
f 16/47/47 15/33/33 9/34/34
f 16/47/47 9/34/34 10/46/46
f 10/46/46 9/34/34 17/35/35
f 10/46/46 17/35/35 18/45/45
f 18/45/45 17/35/35 21/36/36
f 18/45/45 21/36/36 22/44/44
f 22/44/44 21/36/36 29/37/37
f 22/44/44 29/37/37 30/43/43
f 30/43/43 29/37/37 33/38/38
f 30/43/43 33/38/38 34/42/42
f 34/42/42 33/38/38 41/39/39
f 51/55/55 54/69/69 53/54/54
f 53/54/54 54/69/69 50/70/70
f 53/54/54 50/70/70 49/68/68
f 49/68/68 50/70/70 46/71/71
f 49/68/68 46/71/71 45/67/67
f 45/67/67 46/71/71 36/72/72
f 45/67/67 36/72/72 35/66/66
f 35/66/66 36/72/72 24/73/73
f 35/66/66 24/73/73 23/65/65
f 23/65/65 24/73/73 12/74/74
f 23/65/65 12/74/74 11/64/64
f 11/64/64 12/74/74 6/75/75
f 11/64/64 6/75/75 5/63/63
f 5/63/63 6/75/75 2/84/84
f 5/63/63 2/85/85 1/62/62
f 1/86/86 2/76/76 4/77/77
f 1/87/87 4/77/77 3/61/61
f 3/61/61 4/77/77 8/78/78
f 3/61/61 8/78/78 7/60/60
f 7/60/60 8/78/78 14/79/79
f 7/60/60 14/79/79 13/59/59
f 13/59/59 14/79/79 26/80/80
f 13/59/59 26/80/80 25/58/58
f 25/58/58 26/80/80 38/81/81
f 25/58/58 38/81/81 37/57/57
f 37/57/57 38/81/81 48/82/82
f 37/57/57 48/82/82 47/56/56
f 47/56/56 48/82/82 52/83/83
f 47/56/56 52/83/83 51/55/55
f 51/55/55 52/83/83 54/69/69
f 50/102/102 54/88/88 44/103/103
f 44/103/103 54/88/88 52/89/89
f 44/103/103 52/89/89 42/114/114
f 42/114/114 52/89/89 48/90/90
f 42/114/114 48/90/90 34/113/113
f 34/113/113 48/90/90 38/91/91
f 34/113/113 38/91/91 30/112/112
f 30/112/112 38/91/91 26/92/92
f 30/112/112 26/92/92 22/111/111
f 22/111/111 26/92/92 14/93/93
f 22/111/111 14/93/93 8/94/94
f 22/111/111 8/94/94 18/110/110
f 18/110/110 8/94/94 4/95/95
f 18/110/110 4/95/95 10/109/109
f 10/109/109 4/95/95 2/96/96
f 10/109/109 2/96/96 16/108/108
f 16/108/108 2/96/96 6/97/97
f 16/108/108 6/97/97 20/107/107
f 20/107/107 6/97/97 12/98/98
f 20/107/107 12/98/98 24/99/99
f 20/107/107 24/99/99 28/106/106
f 28/106/106 24/99/99 36/100/100
f 28/106/106 36/100/100 32/105/105
f 32/105/105 36/100/100 46/101/101
f 32/105/105 46/101/101 40/104/104
f 40/104/104 46/101/101 50/102/102
f 40/104/104 50/102/102 44/103/103

# 54 vertices
# 114 texture params
# 114 normals
# 108 facets

# 1 groups
