# WaveFront *.obj file (generated by Autodesk ATF)

mtllib 62. Заглушка отверстия фиксатора.mtl

g Твердое тело1

v -5.750000 -4.000000 0.000000
v -5.180571 -4.000000 -2.494832
v -5.180571 -4.000000 2.494832
v -5.100000 4.000000 0.000000
v -4.594941 4.000000 -2.212807
v -4.594941 4.000000 2.212807
v -3.585066 -4.000000 -4.495531
v -3.585066 -4.000000 4.495531
v -3.179798 4.000000 -3.987341
v -3.179798 4.000000 3.987341
v -1.279495 -4.000000 -5.605835
v -1.279495 -4.000000 5.605835
v -1.134857 4.000000 -4.972132
v -1.134857 4.000000 4.972132
v 1.134857 4.000000 -4.972132
v 1.134857 4.000000 4.972132
v 1.279495 -4.000000 -5.605835
v 1.279495 -4.000000 5.605835
v 3.179798 4.000000 -3.987341
v 3.179798 4.000000 3.987341
v 3.585066 -4.000000 -4.495531
v 3.585066 -4.000000 4.495531
v 4.594941 4.000000 -2.212807
v 4.594941 4.000000 2.212807
v 5.100000 4.000000 0.000000
v 5.180571 -4.000000 -2.494832
v 5.180571 -4.000000 2.494832
v 5.750000 -4.000000 0.000000
vt 0.000000 0.000000 0.000000
vt -0.221281 -0.050506 0.000000
vt -0.398734 -0.192020 0.000000
vt -0.497213 -0.396514 0.000000
vt -0.497213 -0.623486 0.000000
vt -0.398734 -0.827980 0.000000
vt -0.221281 -0.969494 0.000000
vt 0.000000 -1.020000 0.000000
vt 0.221281 -0.969494 0.000000
vt 0.398734 -0.827980 0.000000
vt 0.497213 -0.623486 0.000000
vt 0.497213 -0.396514 0.000000
vt 0.398734 -0.192020 0.000000
vt 0.221281 -0.050506 0.000000
vt 0.401318 0.000000 0.000000
vt 0.401318 0.243473 0.000000
vt 0.401318 0.486947 0.000000
vt 0.401318 0.730420 0.000000
vt 0.401318 0.973894 0.000000
vt 0.401318 1.217367 0.000000
vt 0.401318 1.460841 0.000000
vt 0.401318 -1.704314 0.000000
vt 0.401318 -1.460841 0.000000
vt 0.401318 -1.217367 0.000000
vt 0.401318 -0.973894 0.000000
vt 0.401318 -0.730420 0.000000
vt 0.401318 -0.486947 0.000000
vt 0.401318 -0.243473 0.000000
vt -0.401318 0.000000 0.000000
vt -0.401318 -0.243473 0.000000
vt -0.401318 -0.486947 0.000000
vt -0.401318 -0.730420 0.000000
vt -0.401318 -0.973894 0.000000
vt -0.401318 -1.217367 0.000000
vt -0.401318 -1.460841 0.000000
vt -0.401318 1.704314 0.000000
vt -0.401318 1.460841 0.000000
vt -0.401318 1.217367 0.000000
vt -0.401318 0.973894 0.000000
vt -0.401318 0.730420 0.000000
vt -0.401318 0.486947 0.000000
vt -0.401318 0.243473 0.000000
vt -0.401318 -1.704314 0.000000
vt 0.401318 1.704314 0.000000
vt 0.000000 0.575000 0.000000
vt -0.249483 0.518057 0.000000
vt -0.449553 0.358507 0.000000
vt -0.560584 0.127950 0.000000
vt -0.560584 -0.127950 0.000000
vt -0.449553 -0.358507 0.000000
vt -0.249483 -0.518057 0.000000
vt 0.000000 -0.575000 0.000000
vt 0.249483 -0.518057 0.000000
vt 0.449553 -0.358507 0.000000
vt 0.560584 -0.127950 0.000000
vt 0.560584 0.127950 0.000000
vt 0.449553 0.358507 0.000000
vt 0.249483 0.518057 0.000000
vn 0.000000 0.100000 0.000000
vn 0.000000 0.100000 0.000000
vn 0.000000 0.100000 0.000000
vn 0.000000 0.100000 0.000000
vn 0.000000 0.100000 0.000000
vn 0.000000 0.100000 0.000000
vn 0.000000 0.100000 0.000000
vn 0.000000 0.100000 0.000000
vn 0.000000 0.100000 0.000000
vn 0.000000 0.100000 0.000000
vn 0.000000 0.100000 0.000000
vn 0.000000 0.100000 0.000000
vn 0.000000 0.100000 0.000000
vn 0.000000 0.100000 0.000000
vn 0.099672 0.008098 0.000000
vn 0.089801 0.008098 0.043246
vn 0.062144 0.008098 0.077926
vn 0.022179 0.008098 0.097173
vn -0.022179 0.008098 0.097173
vn -0.062144 0.008098 0.077926
vn -0.089801 0.008098 0.043246
vn -0.099672 0.008098 0.000000
vn -0.089801 0.008098 -0.043246
vn -0.062144 0.008098 -0.077926
vn -0.022179 0.008098 -0.097173
vn 0.022179 0.008098 -0.097173
vn 0.062144 0.008098 -0.077926
vn 0.089801 0.008098 -0.043246
vn 0.099672 0.008098 0.000000
vn 0.089801 0.008098 -0.043246
vn 0.062144 0.008098 -0.077926
vn 0.022179 0.008098 -0.097173
vn -0.022179 0.008098 -0.097173
vn -0.062144 0.008098 -0.077926
vn -0.089801 0.008098 -0.043246
vn -0.099672 0.008098 0.000000
vn -0.089801 0.008098 0.043246
vn -0.062144 0.008098 0.077926
vn -0.022179 0.008098 0.097173
vn 0.022179 0.008098 0.097173
vn 0.062144 0.008098 0.077926
vn 0.089801 0.008098 0.043246
vn -0.099672 0.008098 0.000000
vn -0.099672 0.008098 0.000000
vn 0.000000 -0.100000 0.000000
vn 0.000000 -0.100000 0.000000
vn 0.000000 -0.100000 0.000000
vn 0.000000 -0.100000 0.000000
vn 0.000000 -0.100000 0.000000
vn 0.000000 -0.100000 0.000000
vn 0.000000 -0.100000 0.000000
vn 0.000000 -0.100000 0.000000
vn 0.000000 -0.100000 0.000000
vn 0.000000 -0.100000 0.000000
vn 0.000000 -0.100000 0.000000
vn 0.000000 -0.100000 0.000000
vn 0.000000 -0.100000 0.000000
vn 0.000000 -0.100000 0.000000
usemtl 191,191,191
f 23/2/2 5/7/7 25/1/1
f 25/1/1 5/7/7 4/8/8
f 25/1/1 4/8/8 6/9/9
f 5/7/7 23/2/2 9/6/6
f 9/6/6 23/2/2 19/3/3
f 9/6/6 19/3/3 13/5/5
f 13/5/5 19/3/3 15/4/4
f 25/1/1 6/9/9 24/14/14
f 24/14/14 6/9/9 10/10/10
f 24/14/14 10/10/10 20/13/13
f 20/13/13 10/10/10 14/11/11
f 20/13/13 14/11/11 16/12/12
f 24/16/16 27/42/42 25/15/15
f 25/15/15 27/42/42 28/29/29
f 25/15/15 28/29/29 23/28/28
f 23/28/28 28/29/29 26/30/30
f 23/28/28 26/30/30 19/27/27
f 19/27/27 26/30/30 21/31/31
f 19/27/27 21/31/31 15/26/26
f 15/26/26 21/31/31 17/32/32
f 15/26/26 17/32/32 13/25/25
f 13/25/25 17/32/32 11/33/33
f 13/25/25 11/33/33 9/24/24
f 9/24/24 11/33/33 7/34/34
f 9/24/24 7/34/34 5/23/23
f 5/23/23 7/34/34 2/35/35
f 5/23/23 2/35/35 4/22/22
f 4/22/22 2/35/35 1/43/43
f 4/44/44 1/36/36 6/21/21
f 6/21/21 1/36/36 3/37/37
f 6/21/21 3/37/37 10/20/20
f 10/20/20 3/37/37 8/38/38
f 10/20/20 8/38/38 14/19/19
f 14/19/19 8/38/38 12/39/39
f 14/19/19 12/39/39 16/18/18
f 16/18/18 12/39/39 18/40/40
f 16/18/18 18/40/40 20/17/17
f 20/17/17 18/40/40 22/41/41
f 20/17/17 22/41/41 24/16/16
f 24/16/16 22/41/41 27/42/42
f 27/46/46 1/52/52 28/45/45
f 28/45/45 1/52/52 2/53/53
f 28/45/45 2/53/53 26/58/58
f 26/58/58 2/53/53 7/54/54
f 26/58/58 7/54/54 21/57/57
f 21/57/57 7/54/54 11/55/55
f 21/57/57 11/55/55 17/56/56
f 1/52/52 27/46/46 3/51/51
f 3/51/51 27/46/46 22/47/47
f 3/51/51 22/47/47 8/50/50
f 8/50/50 22/47/47 18/48/48
f 8/50/50 18/48/48 12/49/49

# 28 vertices
# 58 texture params
# 58 normals
# 52 facets

# 1 groups
