# WaveFront *.obj file (generated by Autodesk ATF)

mtllib 68. Пластина упорная.mtl

g Твердое тело1

v -15.837144 2.277037 -0.500000
v -15.837144 2.277037 0.500000
v -15.548985 -3.772143 -0.500000
v -15.548985 -3.772143 0.500000
v -13.856406 8.000000 -0.500000
v -13.856406 8.000000 0.500000
v -13.033215 -9.280910 -0.500000
v -13.033215 -9.280910 0.500000
v -8.650253 -13.460057 -0.500000
v -8.650253 -13.460057 0.500000
v -4.933386 -1.795606 -0.500000
v -4.933386 -1.795606 0.500000
v -4.933386 1.795606 -0.500000
v -4.933386 1.795606 0.500000
v -3.028020 -15.710859 -0.500000
v -3.028020 -15.710859 0.500000
v -2.625000 -4.546633 -0.500000
v -2.625000 -4.546633 0.500000
v -2.625000 4.546633 -0.500000
v -2.625000 4.546633 0.500000
v 0.911653 -5.170241 -0.500000
v 0.911653 -5.170241 0.500000
v 0.911653 5.170241 -0.500000
v 0.911653 5.170241 0.500000
v 3.028020 -15.710859 -0.500000
v 3.028020 -15.710859 0.500000
v 4.021733 -3.374635 -0.500000
v 4.021733 -3.374635 0.500000
v 4.021733 3.374635 -0.500000
v 4.021733 3.374635 0.500000
v 5.250000 0.000000 -0.500000
v 5.250000 0.000000 0.500000
v 8.650253 -13.460057 -0.500000
v 8.650253 -13.460057 0.500000
v 13.033215 -9.280910 -0.500000
v 13.033215 -9.280910 0.500000
v 13.856406 8.000000 -0.500000
v 13.856406 8.000000 0.500000
v 15.548985 -3.772143 -0.500000
v 15.548985 -3.772143 0.500000
v 15.837144 2.277037 -0.500000
v 15.837144 2.277037 0.500000
vt 1.385641 1.200000 0.000000
vt -1.385641 1.200000 0.000000
vt -1.583714 0.627704 0.000000
vt -1.554899 0.022786 0.000000
vt -1.303321 -0.528091 0.000000
vt -0.865025 -0.946006 0.000000
vt -0.302802 -1.171086 0.000000
vt 0.302802 -1.171086 0.000000
vt 0.865025 -0.946006 0.000000
vt 1.303321 -0.528091 0.000000
vt 1.554899 0.022786 0.000000
vt 1.583714 0.627704 0.000000
vt -0.525000 0.400000 0.000000
vt -0.402173 0.737463 0.000000
vt -0.091165 0.917024 0.000000
vt 0.262500 0.854663 0.000000
vt 0.493339 0.579561 0.000000
vt 0.493339 0.220439 0.000000
vt 0.262500 -0.054663 0.000000
vt -0.091165 -0.117024 0.000000
vt -0.402173 0.062537 0.000000
vt -0.050000 1.649336 0.000000
vt -0.050000 1.282817 0.000000
vt -0.050000 0.916298 0.000000
vt -0.050000 0.549779 0.000000
vt -0.050000 0.183260 0.000000
vt -0.050000 -0.183260 0.000000
vt -0.050000 -0.549779 0.000000
vt -0.050000 -0.916298 0.000000
vt -0.050000 -1.282817 0.000000
vt 0.050000 -1.649336 0.000000
vt 0.050000 -1.282817 0.000000
vt 0.050000 -0.916298 0.000000
vt 0.050000 -0.549779 0.000000
vt 0.050000 -0.183260 0.000000
vt 0.050000 0.183260 0.000000
vt 0.050000 0.549779 0.000000
vt 0.050000 0.916298 0.000000
vt 0.050000 1.282817 0.000000
vt 0.050000 1.649336 0.000000
vt -0.050000 -1.649336 0.000000
vt 0.050000 -3.351032 0.000000
vt -0.050000 -3.351032 0.000000
vt -0.050000 -3.960311 0.000000
vt -0.050000 -4.569589 0.000000
vt -0.050000 4.874229 0.000000
vt -0.050000 4.264950 0.000000
vt -0.050000 3.655671 0.000000
vt -0.050000 3.046393 0.000000
vt -0.050000 2.437114 0.000000
vt -0.050000 1.827836 0.000000
vt -0.050000 1.218557 0.000000
vt -0.050000 0.609279 0.000000
vt -0.050000 0.000000 0.000000
vt 0.050000 0.000000 0.000000
vt 0.050000 0.609279 0.000000
vt 0.050000 1.218557 0.000000
vt 0.050000 1.827836 0.000000
vt 0.050000 2.437114 0.000000
vt 0.050000 3.046393 0.000000
vt 0.050000 3.655671 0.000000
vt 0.050000 4.264950 0.000000
vt 0.050000 -5.178868 0.000000
vt 0.050000 -4.569589 0.000000
vt 0.050000 -3.960311 0.000000
vt -0.050000 -5.178868 0.000000
vt -0.050000 -5.178868 0.000000
vt 0.050000 4.874229 0.000000
vt 0.050000 4.874229 0.000000
vt 2.771281 -0.050000 0.000000
vt 2.771281 0.050000 0.000000
vt 0.000000 0.050000 0.000000
vt 0.000000 -0.050000 0.000000
vt 1.385641 1.200000 0.000000
vt -1.385641 1.200000 0.000000
vt -1.583714 0.627704 0.000000
vt -1.554899 0.022786 0.000000
vt -1.303321 -0.528091 0.000000
vt -0.865025 -0.946006 0.000000
vt -0.302802 -1.171086 0.000000
vt 0.302802 -1.171086 0.000000
vt 0.865025 -0.946006 0.000000
vt 1.303321 -0.528091 0.000000
vt 1.554899 0.022786 0.000000
vt 1.583714 0.627704 0.000000
vt 0.525000 0.400000 0.000000
vt 0.402173 0.062537 0.000000
vt 0.091165 -0.117024 0.000000
vt -0.262500 -0.054663 0.000000
vt -0.493339 0.220439 0.000000
vt -0.493339 0.579561 0.000000
vt -0.262500 0.854663 0.000000
vt 0.091165 0.917024 0.000000
vt 0.402173 0.737463 0.000000
vn 0.000000 0.000000 -0.100000
vn 0.000000 0.000000 -0.100000
vn 0.000000 0.000000 -0.100000
vn 0.000000 0.000000 -0.100000
vn 0.000000 0.000000 -0.100000
vn 0.000000 0.000000 -0.100000
vn 0.000000 0.000000 -0.100000
vn 0.000000 0.000000 -0.100000
vn 0.000000 0.000000 -0.100000
vn 0.000000 0.000000 -0.100000
vn 0.000000 0.000000 -0.100000
vn 0.000000 0.000000 -0.100000
vn 0.000000 0.000000 -0.100000
vn 0.000000 0.000000 -0.100000
vn 0.000000 0.000000 -0.100000
vn 0.000000 0.000000 -0.100000
vn 0.000000 0.000000 -0.100000
vn 0.000000 0.000000 -0.100000
vn 0.000000 0.000000 -0.100000
vn 0.000000 0.000000 -0.100000
vn 0.000000 0.000000 -0.100000
vn -0.100000 0.000000 0.000000
vn -0.076604 0.064279 0.000000
vn -0.017365 0.098481 0.000000
vn 0.050000 0.086603 0.000000
vn 0.093969 0.034202 0.000000
vn 0.093969 -0.034202 0.000000
vn 0.050000 -0.086603 0.000000
vn -0.017365 -0.098481 0.000000
vn -0.076604 -0.064279 0.000000
vn -0.100000 0.000000 0.000000
vn -0.076604 -0.064279 0.000000
vn -0.017365 -0.098481 0.000000
vn 0.050000 -0.086603 0.000000
vn 0.093969 -0.034202 0.000000
vn 0.093969 0.034202 0.000000
vn 0.050000 0.086603 0.000000
vn -0.017365 0.098481 0.000000
vn -0.076604 0.064279 0.000000
vn -0.100000 0.000000 0.000000
vn -0.100000 0.000000 0.000000
vn 0.086603 0.050000 0.000000
vn 0.086603 0.050000 0.000000
vn 0.098982 0.014231 0.000000
vn 0.097181 -0.023576 0.000000
vn 0.081458 -0.058006 0.000000
vn 0.054064 -0.084125 0.000000
vn 0.018925 -0.098193 0.000000
vn -0.018925 -0.098193 0.000000
vn -0.054064 -0.084125 0.000000
vn -0.081458 -0.058006 0.000000
vn -0.097181 -0.023576 0.000000
vn -0.098982 0.014231 0.000000
vn -0.086603 0.050000 0.000000
vn -0.086603 0.050000 0.000000
vn -0.098982 0.014231 0.000000
vn -0.097181 -0.023576 0.000000
vn -0.081458 -0.058006 0.000000
vn -0.054064 -0.084125 0.000000
vn -0.018925 -0.098193 0.000000
vn 0.018925 -0.098193 0.000000
vn 0.054064 -0.084125 0.000000
vn 0.081458 -0.058006 0.000000
vn 0.097181 -0.023576 0.000000
vn 0.098982 0.014231 0.000000
vn 0.081458 -0.058006 0.000000
vn 0.081458 -0.058006 0.000000
vn 0.081458 -0.058006 0.000000
vn 0.081458 -0.058006 0.000000
vn 0.000000 0.100000 0.000000
vn 0.000000 0.100000 0.000000
vn 0.000000 0.100000 0.000000
vn 0.000000 0.100000 0.000000
vn 0.000000 0.000000 0.100000
vn 0.000000 0.000000 0.100000
vn 0.000000 0.000000 0.100000
vn 0.000000 0.000000 0.100000
vn 0.000000 0.000000 0.100000
vn 0.000000 0.000000 0.100000
vn 0.000000 0.000000 0.100000
vn 0.000000 0.000000 0.100000
vn 0.000000 0.000000 0.100000
vn 0.000000 0.000000 0.100000
vn 0.000000 0.000000 0.100000
vn 0.000000 0.000000 0.100000
vn 0.000000 0.000000 0.100000
vn 0.000000 0.000000 0.100000
vn 0.000000 0.000000 0.100000
vn 0.000000 0.000000 0.100000
vn 0.000000 0.000000 0.100000
vn 0.000000 0.000000 0.100000
vn 0.000000 0.000000 0.100000
vn 0.000000 0.000000 0.100000
vn 0.000000 0.000000 0.100000
usemtl 191,191,191
f 37/2/2 23/15/15 5/1/1
f 5/1/1 23/15/15 19/16/16
f 5/1/1 19/16/16 13/17/17
f 23/15/15 37/2/2 29/14/14
f 29/14/14 37/2/2 41/3/3
f 29/14/14 41/3/3 31/13/13
f 31/13/13 41/3/3 39/4/4
f 31/13/13 39/4/4 27/21/21
f 27/21/21 39/4/4 35/5/5
f 27/21/21 35/5/5 21/20/20
f 21/20/20 35/5/5 33/6/6
f 21/20/20 33/6/6 25/7/7
f 25/7/7 15/8/8 21/20/20
f 21/20/20 15/8/8 17/19/19
f 17/19/19 15/8/8 9/9/9
f 17/19/19 9/9/9 7/10/10
f 17/19/19 7/10/10 11/18/18
f 11/18/18 7/10/10 3/11/11
f 11/18/18 3/11/11 1/12/12
f 11/18/18 1/12/12 13/17/17
f 13/17/17 1/12/12 5/1/1
f 27/23/23 28/39/39 31/22/22
f 31/22/22 28/39/39 32/40/40
f 31/41/41 32/31/31 29/30/30
f 29/30/30 32/31/31 30/32/32
f 29/30/30 30/32/32 23/29/29
f 23/29/29 30/32/32 24/33/33
f 23/29/29 24/33/33 19/28/28
f 19/28/28 24/33/33 20/34/34
f 19/28/28 20/34/34 13/27/27
f 13/27/27 20/34/34 14/35/35
f 13/27/27 14/35/35 11/26/26
f 11/26/26 14/35/35 12/36/36
f 11/26/26 12/36/36 17/25/25
f 17/25/25 12/36/36 18/37/37
f 17/25/25 18/37/37 21/24/24
f 21/24/24 18/37/37 22/38/38
f 21/24/24 22/38/38 27/23/23
f 27/23/23 22/38/38 28/39/39
f 38/43/43 42/44/44 37/42/42
f 37/42/42 42/44/44 41/65/65
f 41/65/65 42/44/44 40/45/45
f 41/65/65 40/45/45 39/64/64
f 39/64/64 40/45/45 36/66/66
f 39/64/64 36/67/67 35/63/63
f 35/68/68 36/46/46 34/47/47
f 35/69/69 34/47/47 33/62/62
f 33/62/62 34/47/47 26/48/48
f 33/62/62 26/48/48 25/61/61
f 25/61/61 26/48/48 16/49/49
f 25/61/61 16/49/49 15/60/60
f 15/60/60 16/49/49 10/50/50
f 15/60/60 10/50/50 9/59/59
f 9/59/59 10/50/50 8/51/51
f 9/59/59 8/51/51 7/58/58
f 7/58/58 8/51/51 4/52/52
f 7/58/58 4/52/52 3/57/57
f 3/57/57 4/52/52 2/53/53
f 3/57/57 2/53/53 1/56/56
f 1/56/56 2/53/53 5/55/55
f 5/55/55 2/53/53 6/54/54
f 6/71/71 38/72/72 5/70/70
f 5/70/70 38/72/72 37/73/73
f 6/75/75 24/93/93 38/74/74
f 38/74/74 24/93/93 30/94/94
f 38/74/74 30/94/94 42/85/85
f 42/85/85 30/94/94 32/86/86
f 42/85/85 32/86/86 40/84/84
f 40/84/84 32/86/86 28/87/87
f 40/84/84 28/87/87 36/83/83
f 36/83/83 28/87/87 22/88/88
f 36/83/83 22/88/88 34/82/82
f 34/82/82 22/88/88 26/81/81
f 26/81/81 22/88/88 16/80/80
f 16/80/80 22/88/88 18/89/89
f 16/80/80 18/89/89 10/79/79
f 10/79/79 18/89/89 8/78/78
f 8/78/78 18/89/89 12/90/90
f 8/78/78 12/90/90 4/77/77
f 4/77/77 12/90/90 2/76/76
f 2/76/76 12/90/90 14/91/91
f 2/76/76 14/91/91 6/75/75
f 6/75/75 14/91/91 20/92/92
f 6/75/75 20/92/92 24/93/93

# 42 vertices
# 94 texture params
# 94 normals
# 84 facets

# 1 groups
