# WaveFront *.obj file (generated by Autodesk ATF)

mtllib 69. Шайба упорная.mtl

g Твердое тело1

v -29.344428 -2.500000 -6.237351
v -29.344428 -2.500000 6.237351
v -29.344428 2.500000 -6.237351
v -29.344428 2.500000 6.237351
v -24.270511 -2.500000 -17.633557
v -24.270511 -2.500000 17.633557
v -24.270511 2.500000 -17.633557
v -24.270511 2.500000 17.633557
v -19.500000 -2.500000 0.000000
v -19.500000 2.500000 0.000000
v -19.000000 -2.000000 0.000000
v -19.000000 2.000000 0.000000
v -16.887496 -2.500000 -9.750000
v -16.887496 -2.500000 9.750000
v -16.887496 2.500000 -9.750000
v -16.887496 2.500000 9.750000
v -16.454482 -2.000000 -9.500000
v -16.454482 -2.000000 9.500000
v -16.454482 2.000000 -9.500000
v -16.454482 2.000000 9.500000
v -15.000000 -2.500000 -25.980761
v -15.000000 -2.500000 25.980761
v -15.000000 2.500000 -25.980761
v -15.000000 2.500000 25.980761
v -9.750000 -2.500000 -16.887496
v -9.750000 -2.500000 16.887496
v -9.750000 2.500000 -16.887496
v -9.750000 2.500000 16.887496
v -9.500000 -2.000000 -16.454482
v -9.500000 -2.000000 16.454482
v -9.500000 2.000000 -16.454482
v -9.500000 2.000000 16.454482
v -3.135854 -2.500000 -29.835656
v -3.135854 -2.500000 29.835656
v -3.135854 2.500000 -29.835656
v -3.135854 2.500000 29.835656
v 0.000000 -2.500000 -19.500000
v 0.000000 -2.500000 19.500000
v 0.000000 -2.000000 -19.000000
v 0.000000 -2.000000 19.000000
v 0.000000 2.000000 -19.000000
v 0.000000 2.000000 19.000000
v 0.000000 2.500000 -19.500000
v 0.000000 2.500000 19.500000
v 9.270510 -2.500000 -28.531694
v 9.270510 -2.500000 28.531694
v 9.270510 2.500000 -28.531694
v 9.270510 2.500000 28.531694
v 9.500000 -2.000000 -16.454482
v 9.500000 -2.000000 16.454482
v 9.500000 2.000000 -16.454482
v 9.500000 2.000000 16.454482
v 9.750000 -2.500000 -16.887496
v 9.750000 -2.500000 16.887496
v 9.750000 2.500000 -16.887496
v 9.750000 2.500000 16.887496
v 16.454482 -2.000000 -9.500000
v 16.454482 -2.000000 9.500000
v 16.454482 2.000000 -9.500000
v 16.454482 2.000000 9.500000
v 16.887496 -2.500000 -9.750000
v 16.887496 -2.500000 9.750000
v 16.887496 2.500000 -9.750000
v 16.887496 2.500000 9.750000
v 19.000000 -2.000000 0.000000
v 19.000000 2.000000 0.000000
v 19.500000 -2.500000 0.000000
v 19.500000 2.500000 0.000000
v 20.073919 -2.500000 -22.294345
v 20.073919 -2.500000 22.294345
v 20.073919 2.500000 -22.294345
v 20.073919 2.500000 22.294345
v 27.406363 -2.500000 -12.202100
v 27.406363 -2.500000 12.202100
v 27.406363 2.500000 -12.202100
v 27.406363 2.500000 12.202100
v 30.000000 -2.500000 0.000000
v 30.000000 2.500000 0.000000
vt 0.035355 0.000000 0.000000
vt 0.035355 1.007928 0.000000
vt 0.035355 2.015855 0.000000
vt 0.035355 3.023783 0.000000
vt 0.035355 4.031711 0.000000
vt 0.035355 5.039638 0.000000
vt 0.035355 -6.047566 0.000000
vt 0.035355 -5.039638 0.000000
vt 0.035355 -4.031711 0.000000
vt 0.035355 -3.023783 0.000000
vt 0.035355 -2.015855 0.000000
vt 0.035355 -1.007928 0.000000
vt -0.035355 0.000000 0.000000
vt -0.035355 -1.007928 0.000000
vt -0.035355 -2.015855 0.000000
vt -0.035355 -3.023783 0.000000
vt -0.035355 -4.031711 0.000000
vt -0.035355 -5.039638 0.000000
vt -0.035355 6.047566 0.000000
vt -0.035355 5.039638 0.000000
vt -0.035355 4.031711 0.000000
vt -0.035355 3.023783 0.000000
vt -0.035355 2.015855 0.000000
vt -0.035355 1.007928 0.000000
vt -0.035355 -6.047566 0.000000
vt 0.035355 6.047566 0.000000
vt 0.200000 0.000000 0.000000
vt 0.200000 0.994838 0.000000
vt 0.200000 1.989675 0.000000
vt 0.200000 2.984513 0.000000
vt 0.200000 3.979351 0.000000
vt 0.200000 4.974188 0.000000
vt 0.200000 -5.969026 0.000000
vt 0.200000 -4.974188 0.000000
vt 0.200000 -3.979351 0.000000
vt 0.200000 -2.984513 0.000000
vt 0.200000 -1.989675 0.000000
vt 0.200000 -0.994838 0.000000
vt -0.200000 0.000000 0.000000
vt -0.200000 -0.994838 0.000000
vt -0.200000 -1.989675 0.000000
vt -0.200000 -2.984513 0.000000
vt -0.200000 -3.979351 0.000000
vt -0.200000 -4.974188 0.000000
vt -0.200000 5.969026 0.000000
vt -0.200000 4.974188 0.000000
vt -0.200000 3.979351 0.000000
vt -0.200000 2.984513 0.000000
vt -0.200000 1.989675 0.000000
vt -0.200000 0.994838 0.000000
vt -0.200000 -5.969026 0.000000
vt 0.200000 5.969026 0.000000
vt 0.035355 0.000000 0.000000
vt 0.035355 1.007928 0.000000
vt 0.035355 2.015855 0.000000
vt 0.035355 3.023783 0.000000
vt 0.035355 4.031711 0.000000
vt 0.035355 5.039638 0.000000
vt 0.035355 -6.047566 0.000000
vt 0.035355 -5.039638 0.000000
vt 0.035355 -4.031711 0.000000
vt 0.035355 -3.023783 0.000000
vt 0.035355 -2.015855 0.000000
vt 0.035355 -1.007928 0.000000
vt -0.035355 0.000000 0.000000
vt -0.035355 -1.007928 0.000000
vt -0.035355 -2.015855 0.000000
vt -0.035355 -3.023783 0.000000
vt -0.035355 -4.031711 0.000000
vt -0.035355 -5.039638 0.000000
vt -0.035355 6.047566 0.000000
vt -0.035355 5.039638 0.000000
vt -0.035355 4.031711 0.000000
vt -0.035355 3.023783 0.000000
vt -0.035355 2.015855 0.000000
vt -0.035355 1.007928 0.000000
vt -0.035355 -6.047566 0.000000
vt 0.035355 6.047566 0.000000
vt 0.000000 -1.050000 0.000000
vt 0.975000 -1.311250 0.000000
vt 1.688750 -2.025000 0.000000
vt 1.950000 -3.000000 0.000000
vt 1.688750 -3.975000 0.000000
vt 0.975000 -4.688749 0.000000
vt 0.000000 -4.950000 0.000000
vt -0.975000 -4.688749 0.000000
vt -1.688750 -3.975000 0.000000
vt -1.950000 -3.000000 0.000000
vt -1.688750 -2.025000 0.000000
vt -0.975000 -1.311250 0.000000
vt 0.000000 0.000000 0.000000
vt -1.220210 -0.259364 0.000000
vt -2.229434 -0.992608 0.000000
vt -2.853169 -2.072949 0.000000
vt -2.983566 -3.313585 0.000000
vt -2.598076 -4.500000 0.000000
vt -1.763356 -5.427051 0.000000
vt -0.623735 -5.934443 0.000000
vt 0.623735 -5.934443 0.000000
vt 1.763356 -5.427051 0.000000
vt 2.598076 -4.500000 0.000000
vt 2.983566 -3.313585 0.000000
vt 2.853169 -2.072949 0.000000
vt 2.229434 -0.992608 0.000000
vt 1.220210 -0.259364 0.000000
vt 0.250000 0.000000 0.000000
vt 0.250000 1.256637 0.000000
vt 0.250000 2.513274 0.000000
vt 0.250000 3.769911 0.000000
vt 0.250000 5.026548 0.000000
vt 0.250000 6.283185 0.000000
vt 0.250000 7.539823 0.000000
vt 0.250000 8.796459 0.000000
vt 0.250000 -8.796459 0.000000
vt 0.250000 -7.539823 0.000000
vt 0.250000 -6.283185 0.000000
vt 0.250000 -5.026548 0.000000
vt 0.250000 -3.769911 0.000000
vt 0.250000 -2.513274 0.000000
vt 0.250000 -1.256637 0.000000
vt -0.250000 0.000000 0.000000
vt -0.250000 -1.256637 0.000000
vt -0.250000 -2.513274 0.000000
vt -0.250000 -3.769911 0.000000
vt -0.250000 -5.026548 0.000000
vt -0.250000 -6.283185 0.000000
vt -0.250000 -7.539823 0.000000
vt -0.250000 10.053097 0.000000
vt -0.250000 8.796459 0.000000
vt -0.250000 7.539823 0.000000
vt -0.250000 6.283185 0.000000
vt -0.250000 5.026548 0.000000
vt -0.250000 3.769911 0.000000
vt -0.250000 2.513274 0.000000
vt -0.250000 1.256637 0.000000
vt -0.250000 -8.796459 0.000000
vt -0.250000 -8.796459 0.000000
vt 0.250000 10.053097 0.000000
vt 0.250000 10.053097 0.000000
vt 0.000000 1.050000 0.000000
vt -1.220210 0.790636 0.000000
vt -2.229434 0.057392 0.000000
vt -2.853169 -1.022949 0.000000
vt -2.983566 -2.263585 0.000000
vt -2.598076 -3.450000 0.000000
vt -1.763356 -4.377051 0.000000
vt -0.623735 -4.884443 0.000000
vt 0.623735 -4.884443 0.000000
vt 1.763356 -4.377051 0.000000
vt 2.598076 -3.450000 0.000000
vt 2.983566 -2.263585 0.000000
vt 2.853169 -1.022949 0.000000
vt 2.229434 0.057392 0.000000
vt 1.220210 0.790636 0.000000
vt 0.000000 0.000000 0.000000
vt 0.975000 -0.261250 0.000000
vt 1.688750 -0.975000 0.000000
vt 1.950000 -1.950000 0.000000
vt 1.688750 -2.925000 0.000000
vt 0.975000 -3.638750 0.000000
vt 0.000000 -3.900000 0.000000
vt -0.975000 -3.638750 0.000000
vt -1.688750 -2.925000 0.000000
vt -1.950000 -1.950000 0.000000
vt -1.688750 -0.975000 0.000000
vt -0.975000 -0.261250 0.000000
vn -0.070711 -0.070711 0.000000
vn -0.061237 -0.070711 -0.035355
vn -0.035355 -0.070711 -0.061237
vn 0.000000 -0.070711 -0.070711
vn 0.035355 -0.070711 -0.061237
vn 0.061237 -0.070711 -0.035355
vn 0.070711 -0.070711 0.000000
vn 0.061237 -0.070711 0.035355
vn 0.035355 -0.070711 0.061237
vn 0.000000 -0.070711 0.070711
vn -0.035355 -0.070711 0.061237
vn -0.061237 -0.070711 0.035355
vn -0.070711 -0.070711 0.000000
vn -0.061237 -0.070711 0.035355
vn -0.035355 -0.070711 0.061237
vn 0.000000 -0.070711 0.070711
vn 0.035355 -0.070711 0.061237
vn 0.061237 -0.070711 0.035355
vn 0.070711 -0.070711 0.000000
vn 0.061237 -0.070711 -0.035355
vn 0.035355 -0.070711 -0.061237
vn 0.000000 -0.070711 -0.070711
vn -0.035355 -0.070711 -0.061237
vn -0.061237 -0.070711 -0.035355
vn 0.070711 -0.070711 0.000000
vn 0.070711 -0.070711 0.000000
vn -0.100000 0.000000 0.000000
vn -0.086603 0.000000 -0.050000
vn -0.050000 0.000000 -0.086603
vn 0.000000 0.000000 -0.100000
vn 0.050000 0.000000 -0.086603
vn 0.086603 0.000000 -0.050000
vn 0.100000 0.000000 0.000000
vn 0.086603 0.000000 0.050000
vn 0.050000 0.000000 0.086603
vn 0.000000 0.000000 0.100000
vn -0.050000 0.000000 0.086603
vn -0.086603 0.000000 0.050000
vn -0.100000 0.000000 0.000000
vn -0.086603 0.000000 0.050000
vn -0.050000 0.000000 0.086603
vn 0.000000 0.000000 0.100000
vn 0.050000 0.000000 0.086603
vn 0.086603 0.000000 0.050000
vn 0.100000 0.000000 0.000000
vn 0.086603 0.000000 -0.050000
vn 0.050000 0.000000 -0.086603
vn 0.000000 0.000000 -0.100000
vn -0.050000 0.000000 -0.086603
vn -0.086603 0.000000 -0.050000
vn 0.100000 0.000000 0.000000
vn 0.100000 0.000000 0.000000
vn -0.070711 0.070711 0.000000
vn -0.061237 0.070711 -0.035355
vn -0.035355 0.070711 -0.061237
vn 0.000000 0.070711 -0.070711
vn 0.035355 0.070711 -0.061237
vn 0.061237 0.070711 -0.035355
vn 0.070711 0.070711 0.000000
vn 0.061237 0.070711 0.035355
vn 0.035355 0.070711 0.061237
vn 0.000000 0.070711 0.070711
vn -0.035355 0.070711 0.061237
vn -0.061237 0.070711 0.035355
vn -0.070711 0.070711 0.000000
vn -0.061237 0.070711 0.035355
vn -0.035355 0.070711 0.061237
vn 0.000000 0.070711 0.070711
vn 0.035355 0.070711 0.061237
vn 0.061237 0.070711 0.035355
vn 0.070711 0.070711 0.000000
vn 0.061237 0.070711 -0.035355
vn 0.035355 0.070711 -0.061237
vn 0.000000 0.070711 -0.070711
vn -0.035355 0.070711 -0.061237
vn -0.061237 0.070711 -0.035355
vn 0.070711 0.070711 0.000000
vn 0.070711 0.070711 0.000000
vn 0.000000 0.100000 0.000000
vn 0.000000 0.100000 0.000000
vn 0.000000 0.100000 0.000000
vn 0.000000 0.100000 0.000000
vn 0.000000 0.100000 0.000000
vn 0.000000 0.100000 0.000000
vn 0.000000 0.100000 0.000000
vn 0.000000 0.100000 0.000000
vn 0.000000 0.100000 0.000000
vn 0.000000 0.100000 0.000000
vn 0.000000 0.100000 0.000000
vn 0.000000 0.100000 0.000000
vn 0.000000 0.100000 0.000000
vn 0.000000 0.100000 0.000000
vn 0.000000 0.100000 0.000000
vn 0.000000 0.100000 0.000000
vn 0.000000 0.100000 0.000000
vn 0.000000 0.100000 0.000000
vn 0.000000 0.100000 0.000000
vn 0.000000 0.100000 0.000000
vn 0.000000 0.100000 0.000000
vn 0.000000 0.100000 0.000000
vn 0.000000 0.100000 0.000000
vn 0.000000 0.100000 0.000000
vn 0.000000 0.100000 0.000000
vn 0.000000 0.100000 0.000000
vn 0.000000 0.100000 0.000000
vn 0.100000 0.000000 0.000000
vn 0.091355 0.000000 0.040674
vn 0.066913 0.000000 0.074314
vn 0.030902 0.000000 0.095106
vn -0.010453 0.000000 0.099452
vn -0.050000 0.000000 0.086603
vn -0.080902 0.000000 0.058779
vn -0.097815 0.000000 0.020791
vn -0.097815 0.000000 -0.020791
vn -0.080902 0.000000 -0.058779
vn -0.050000 0.000000 -0.086603
vn -0.010453 0.000000 -0.099452
vn 0.030902 0.000000 -0.095106
vn 0.066913 0.000000 -0.074314
vn 0.091355 0.000000 -0.040674
vn 0.100000 0.000000 0.000000
vn 0.091355 0.000000 -0.040674
vn 0.066913 0.000000 -0.074314
vn 0.030902 0.000000 -0.095106
vn -0.010453 0.000000 -0.099452
vn -0.050000 0.000000 -0.086603
vn -0.080902 0.000000 -0.058779
vn -0.097815 0.000000 -0.020791
vn -0.097815 0.000000 0.020791
vn -0.080902 0.000000 0.058779
vn -0.050000 0.000000 0.086603
vn -0.010453 0.000000 0.099452
vn 0.030902 0.000000 0.095106
vn 0.066913 0.000000 0.074314
vn 0.091355 0.000000 0.040674
vn -0.097815 0.000000 -0.020791
vn -0.097815 0.000000 -0.020791
vn -0.097815 0.000000 -0.020791
vn -0.097815 0.000000 -0.020791
vn 0.000000 -0.100000 0.000000
vn 0.000000 -0.100000 0.000000
vn 0.000000 -0.100000 0.000000
vn 0.000000 -0.100000 0.000000
vn 0.000000 -0.100000 0.000000
vn 0.000000 -0.100000 0.000000
vn 0.000000 -0.100000 0.000000
vn 0.000000 -0.100000 0.000000
vn 0.000000 -0.100000 0.000000
vn 0.000000 -0.100000 0.000000
vn 0.000000 -0.100000 0.000000
vn 0.000000 -0.100000 0.000000
vn 0.000000 -0.100000 0.000000
vn 0.000000 -0.100000 0.000000
vn 0.000000 -0.100000 0.000000
vn 0.000000 -0.100000 0.000000
vn 0.000000 -0.100000 0.000000
vn 0.000000 -0.100000 0.000000
vn 0.000000 -0.100000 0.000000
vn 0.000000 -0.100000 0.000000
vn 0.000000 -0.100000 0.000000
vn 0.000000 -0.100000 0.000000
vn 0.000000 -0.100000 0.000000
vn 0.000000 -0.100000 0.000000
vn 0.000000 -0.100000 0.000000
vn 0.000000 -0.100000 0.000000
vn 0.000000 -0.100000 0.000000
usemtl 191,191,191
f 62/2/2 58/24/24 67/1/1
f 67/1/1 58/24/24 65/13/13
f 67/1/1 65/13/13 61/12/12
f 61/12/12 65/13/13 57/14/14
f 61/12/12 57/14/14 53/11/11
f 53/11/11 57/14/14 49/15/15
f 53/11/11 49/15/15 37/10/10
f 37/10/10 49/15/15 39/16/16
f 37/10/10 39/16/16 25/9/9
f 25/9/9 39/16/16 29/17/17
f 25/9/9 29/17/17 13/8/8
f 13/8/8 29/17/17 17/18/18
f 13/8/8 17/18/18 9/7/7
f 9/7/7 17/18/18 11/25/25
f 9/26/26 11/19/19 14/6/6
f 14/6/6 11/19/19 18/20/20
f 14/6/6 18/20/20 26/5/5
f 26/5/5 18/20/20 30/21/21
f 26/5/5 30/21/21 38/4/4
f 38/4/4 30/21/21 40/22/22
f 38/4/4 40/22/22 54/3/3
f 54/3/3 40/22/22 50/23/23
f 54/3/3 50/23/23 62/2/2
f 62/2/2 50/23/23 58/24/24
f 58/28/28 60/50/50 65/27/27
f 65/27/27 60/50/50 66/39/39
f 65/27/27 66/39/39 57/38/38
f 57/38/38 66/39/39 59/40/40
f 57/38/38 59/40/40 49/37/37
f 49/37/37 59/40/40 51/41/41
f 49/37/37 51/41/41 39/36/36
f 39/36/36 51/41/41 41/42/42
f 39/36/36 41/42/42 29/35/35
f 29/35/35 41/42/42 31/43/43
f 29/35/35 31/43/43 17/34/34
f 17/34/34 31/43/43 19/44/44
f 17/34/34 19/44/44 11/33/33
f 11/33/33 19/44/44 12/51/51
f 11/52/52 12/45/45 18/32/32
f 18/32/32 12/45/45 20/46/46
f 18/32/32 20/46/46 30/31/31
f 30/31/31 20/46/46 32/47/47
f 30/31/31 32/47/47 40/30/30
f 40/30/30 32/47/47 42/48/48
f 40/30/30 42/48/48 50/29/29
f 50/29/29 42/48/48 52/49/49
f 50/29/29 52/49/49 58/28/28
f 58/28/28 52/49/49 60/50/50
f 60/54/54 64/76/76 66/53/53
f 66/53/53 64/76/76 68/65/65
f 66/53/53 68/65/65 59/64/64
f 59/64/64 68/65/65 63/66/66
f 59/64/64 63/66/66 51/63/63
f 51/63/63 63/66/66 55/67/67
f 51/63/63 55/67/67 41/62/62
f 41/62/62 55/67/67 43/68/68
f 41/62/62 43/68/68 31/61/61
f 31/61/61 43/68/68 27/69/69
f 31/61/61 27/69/69 19/60/60
f 19/60/60 27/69/69 15/70/70
f 19/60/60 15/70/70 12/59/59
f 12/59/59 15/70/70 10/77/77
f 12/78/78 10/71/71 20/58/58
f 20/58/58 10/71/71 16/72/72
f 20/58/58 16/72/72 32/57/57
f 32/57/57 16/72/72 28/73/73
f 32/57/57 28/73/73 42/56/56
f 42/56/56 28/73/73 44/74/74
f 42/56/56 44/74/74 52/55/55
f 52/55/55 44/74/74 56/75/75
f 52/55/55 56/75/75 60/54/54
f 60/54/54 56/75/75 64/76/76
f 64/80/80 76/105/105 68/79/79
f 68/79/79 76/105/105 78/91/91
f 68/79/79 78/91/91 75/92/92
f 76/105/105 64/80/80 72/104/104
f 72/104/104 64/80/80 56/81/81
f 72/104/104 56/81/81 48/103/103
f 48/103/103 56/81/81 44/82/82
f 48/103/103 44/82/82 36/102/102
f 36/102/102 44/82/82 28/83/83
f 36/102/102 28/83/83 24/101/101
f 24/101/101 28/83/83 8/100/100
f 8/100/100 28/83/83 16/84/84
f 8/100/100 16/84/84 4/99/99
f 4/99/99 16/84/84 10/85/85
f 4/99/99 10/85/85 3/98/98
f 3/98/98 10/85/85 15/86/86
f 3/98/98 15/86/86 7/97/97
f 7/97/97 15/86/86 27/87/87
f 7/97/97 27/87/87 23/96/96
f 23/96/96 27/87/87 35/95/95
f 35/95/95 27/87/87 43/88/88
f 35/95/95 43/88/88 47/94/94
f 47/94/94 43/88/88 55/89/89
f 47/94/94 55/89/89 71/93/93
f 71/93/93 55/89/89 63/90/90
f 71/93/93 63/90/90 75/92/92
f 75/92/92 63/90/90 68/79/79
f 76/107/107 77/121/121 78/106/106
f 78/106/106 77/121/121 73/122/122
f 78/106/106 73/122/122 75/120/120
f 75/120/120 73/122/122 69/123/123
f 75/120/120 69/123/123 71/119/119
f 71/119/119 69/123/123 45/124/124
f 71/119/119 45/124/124 47/118/118
f 47/118/118 45/124/124 33/125/125
f 47/118/118 33/125/125 35/117/117
f 35/117/117 33/125/125 21/126/126
f 35/117/117 21/126/126 23/116/116
f 23/116/116 21/126/126 5/127/127
f 23/116/116 5/127/127 7/115/115
f 7/115/115 5/127/127 1/136/136
f 7/115/115 1/137/137 3/114/114
f 3/138/138 1/128/128 2/129/129
f 3/139/139 2/129/129 4/113/113
f 4/113/113 2/129/129 6/130/130
f 4/113/113 6/130/130 8/112/112
f 8/112/112 6/130/130 22/131/131
f 8/112/112 22/131/131 24/111/111
f 24/111/111 22/131/131 34/132/132
f 24/111/111 34/132/132 36/110/110
f 36/110/110 34/132/132 46/133/133
f 36/110/110 46/133/133 48/109/109
f 48/109/109 46/133/133 70/134/134
f 48/109/109 70/134/134 72/108/108
f 72/108/108 70/134/134 74/135/135
f 72/108/108 74/135/135 76/107/107
f 76/107/107 74/135/135 77/121/121
f 73/154/154 77/140/140 67/155/155
f 67/155/155 77/140/140 74/141/141
f 67/155/155 74/141/141 62/166/166
f 62/166/166 74/141/141 70/142/142
f 62/166/166 70/142/142 54/165/165
f 54/165/165 70/142/142 46/143/143
f 54/165/165 46/143/143 38/164/164
f 38/164/164 46/143/143 34/144/144
f 38/164/164 34/144/144 26/163/163
f 26/163/163 34/144/144 22/145/145
f 26/163/163 22/145/145 6/146/146
f 26/163/163 6/146/146 14/162/162
f 14/162/162 6/146/146 2/147/147
f 14/162/162 2/147/147 9/161/161
f 9/161/161 2/147/147 1/148/148
f 9/161/161 1/148/148 13/160/160
f 13/160/160 1/148/148 5/149/149
f 13/160/160 5/149/149 25/159/159
f 25/159/159 5/149/149 21/150/150
f 25/159/159 21/150/150 33/151/151
f 25/159/159 33/151/151 37/158/158
f 37/158/158 33/151/151 45/152/152
f 37/158/158 45/152/152 53/157/157
f 53/157/157 45/152/152 69/153/153
f 53/157/157 69/153/153 61/156/156
f 61/156/156 69/153/153 73/154/154
f 61/156/156 73/154/154 67/155/155

# 78 vertices
# 166 texture params
# 166 normals
# 156 facets

# 1 groups
