# WaveFront *.obj file (generated by Autodesk ATF)

mtllib 71. Втулка блока заднего хода.mtl

g Твердое тело1

v -14.125000 -25.000000 0.000000
v -14.125000 25.000000 0.000000
v -13.857051 -25.999999 0.000000
v -13.857051 25.999999 0.000000
v -12.573000 -25.999999 0.000000
v -12.573000 25.999999 0.000000
v -12.232609 -25.000000 -7.062500
v -12.232609 -25.000000 7.062500
v -12.232609 25.000000 -7.062500
v -12.232609 25.000000 7.062500
v -12.000558 -25.999999 -6.928526
v -12.000558 -25.999999 6.928526
v -12.000558 25.999999 -6.928526
v -12.000558 25.999999 6.928526
v -11.187930 -25.999999 -5.736771
v -11.187930 -25.999999 5.736771
v -11.187930 25.999999 -5.736771
v -11.187930 25.999999 5.736771
v -7.487886 -25.999999 -10.469398
v -7.487886 -25.999999 10.469398
v -7.487886 25.999999 -10.469398
v -7.487886 25.999999 10.469398
v -7.337886 -25.999999 -10.209591
v -7.337886 -25.999999 10.209591
v -7.337886 25.999999 -10.209591
v -7.337886 25.999999 10.209591
v -7.062500 -25.000000 -12.232609
v -7.062500 -25.000000 12.232609
v -7.062500 25.000000 -12.232609
v -7.062500 25.000000 12.232609
v -6.928526 -25.999999 -12.000558
v -6.928526 -25.999999 12.000558
v -6.928526 25.999999 -12.000558
v -6.928526 25.999999 12.000558
v -5.322822 -25.999999 -11.719398
v -5.322822 -25.999999 11.719398
v -5.322822 25.999999 -11.719398
v -5.322822 25.999999 11.719398
v -5.172822 -25.999999 -11.459591
v -5.172822 -25.999999 11.459591
v -5.172822 25.999999 -11.459591
v -5.172822 25.999999 11.459591
v 0.000000 -25.999999 -13.857051
v 0.000000 -25.999999 13.857051
v 0.000000 -25.000000 -14.125000
v 0.000000 -25.000000 14.125000
v 0.000000 25.000000 -14.125000
v 0.000000 25.000000 14.125000
v 0.000000 25.999999 -13.857051
v 0.000000 25.999999 13.857051
v 0.625776 -25.999999 -12.557417
v 0.625776 -25.999999 12.557417
v 0.625776 25.999999 -12.557417
v 0.625776 25.999999 12.557417
v 6.286500 -25.999999 -10.888537
v 6.286500 -25.999999 10.888537
v 6.286500 25.999999 -10.888537
v 6.286500 25.999999 10.888537
v 6.928526 -25.999999 -12.000558
v 6.928526 -25.999999 12.000558
v 6.928526 25.999999 -12.000558
v 6.928526 25.999999 12.000558
v 7.062500 -25.000000 -12.232609
v 7.062500 -25.000000 12.232609
v 7.062500 25.000000 -12.232609
v 7.062500 25.000000 12.232609
v 10.562155 -25.999999 -6.820647
v 10.562155 -25.999999 6.820647
v 10.562155 25.999999 -6.820647
v 10.562155 25.999999 6.820647
v 12.000558 -25.999999 -6.928526
v 12.000558 -25.999999 6.928526
v 12.000558 25.999999 -6.928526
v 12.000558 25.999999 6.928526
v 12.232609 -25.000000 -7.062500
v 12.232609 -25.000000 7.062500
v 12.232609 25.000000 -7.062500
v 12.232609 25.000000 7.062500
v 12.510709 -25.999999 -1.250000
v 12.510709 -25.999999 1.250000
v 12.510709 25.999999 -1.250000
v 12.510709 25.999999 1.250000
v 12.810708 -25.999999 -1.250000
v 12.810708 -25.999999 1.250000
v 12.810708 25.999999 -1.250000
v 12.810708 25.999999 1.250000
v 13.857051 -25.999999 0.000000
v 13.857051 25.999999 0.000000
v 14.125000 -25.000000 0.000000
v 14.125000 25.000000 0.000000
vt -0.000000 5.200000 0.000000
vt -0.030000 5.200000 0.000000
vt -0.030000 0.000000 0.000000
vt -0.000000 0.000000 0.000000
vt -0.000000 5.200000 0.000000
vt -0.250000 5.200000 0.000000
vt -0.250000 0.000000 0.000000
vt -0.000000 0.000000 0.000000
vt -0.000000 5.200000 0.000000
vt -0.030000 5.200000 0.000000
vt -0.030000 0.000000 0.000000
vt -0.000000 0.000000 0.000000
vt -0.000000 5.200000 0.000000
vt -0.030000 5.200000 0.000000
vt -0.030000 0.000000 0.000000
vt -0.000000 0.000000 0.000000
vt -0.000000 5.200000 0.000000
vt -0.250000 5.200000 0.000000
vt -0.250000 0.000000 0.000000
vt -0.000000 0.000000 0.000000
vt -0.000000 5.200000 0.000000
vt -0.030000 5.200000 0.000000
vt -0.030000 0.000000 0.000000
vt -0.000000 0.000000 0.000000
vt 0.000000 0.000000 0.000000
vt -0.692853 -0.185649 0.000000
vt -1.200056 -0.692853 0.000000
vt -1.385705 -1.385705 0.000000
vt -1.200056 -2.078558 0.000000
vt -0.692853 -2.585761 0.000000
vt 0.000000 -2.771410 0.000000
vt 0.692853 -2.585761 0.000000
vt 1.200056 -2.078558 0.000000
vt 1.385705 -1.385705 0.000000
vt 1.200056 -0.692853 0.000000
vt 0.692853 -0.185649 0.000000
vt -1.020959 -2.119494 0.000000
vt -1.046940 -2.134494 0.000000
vt -1.171940 -1.917987 0.000000
vt -1.145959 -1.902987 0.000000
vt -1.255742 -1.323128 0.000000
vt -1.088854 -0.757055 0.000000
vt -0.682065 -0.329490 0.000000
vt -0.125000 -0.134634 0.000000
vt -0.125000 -0.104634 0.000000
vt 0.125000 -0.104634 0.000000
vt 0.125000 -0.134634 0.000000
vt 0.682065 -0.329490 0.000000
vt 1.088854 -0.757055 0.000000
vt 1.255742 -1.323128 0.000000
vt 1.145959 -1.902987 0.000000
vt 1.171940 -1.917987 0.000000
vt 1.046940 -2.134494 0.000000
vt 1.020959 -2.119494 0.000000
vt 0.573677 -2.504498 0.000000
vt 0.000000 -2.643005 0.000000
vt -0.573677 -2.504498 0.000000
vt -2.600000 -2.508076 0.000000
vt 2.600000 -2.508076 0.000000
vt 2.600000 -1.912359 0.000000
vt 2.600000 -1.316642 0.000000
vt 2.600000 -0.720924 0.000000
vt 2.600000 -0.125207 0.000000
vt -2.600000 -0.125207 0.000000
vt -2.600000 -0.720924 0.000000
vt -2.600000 -1.316642 0.000000
vt -2.600000 -1.912359 0.000000
vt 2.600000 2.508076 0.000000
vt -2.600000 2.508076 0.000000
vt -2.600000 1.912359 0.000000
vt -2.600000 1.316642 0.000000
vt -2.600000 0.720924 0.000000
vt -2.600000 0.125207 0.000000
vt 2.600000 0.125207 0.000000
vt 2.600000 0.720924 0.000000
vt 2.600000 1.316642 0.000000
vt 2.600000 1.912359 0.000000
vt -0.000000 5.200000 0.000000
vt -0.030000 5.200000 0.000000
vt -0.030000 0.000000 0.000000
vt -0.000000 0.000000 0.000000
vt -0.000000 5.200000 0.000000
vt -0.250000 5.200000 0.000000
vt -0.250000 0.000000 0.000000
vt -0.000000 0.000000 0.000000
vt -0.000000 5.200000 0.000000
vt -0.030000 5.200000 0.000000
vt -0.030000 0.000000 0.000000
vt -0.000000 0.000000 0.000000
vt 1.046940 -2.006088 0.000000
vt 1.020959 -1.991089 0.000000
vt 0.573677 -2.376093 0.000000
vt 0.000000 -2.514600 0.000000
vt -0.573677 -2.376093 0.000000
vt -1.020959 -1.991089 0.000000
vt -1.046940 -2.006088 0.000000
vt -1.171940 -1.789582 0.000000
vt -1.145959 -1.774582 0.000000
vt -1.255742 -1.194722 0.000000
vt -1.088854 -0.628650 0.000000
vt -0.682065 -0.201085 0.000000
vt -0.125000 -0.006229 0.000000
vt -0.125000 0.023771 0.000000
vt 0.125000 0.023771 0.000000
vt 0.125000 -0.006229 0.000000
vt 0.682065 -0.201085 0.000000
vt 1.088854 -0.628650 0.000000
vt 1.255742 -1.194722 0.000000
vt 1.145959 -1.774582 0.000000
vt 1.171940 -1.789582 0.000000
vt 0.000000 0.128405 0.000000
vt -0.692853 -0.057244 0.000000
vt -1.200056 -0.564447 0.000000
vt -1.385705 -1.257300 0.000000
vt -1.200056 -1.950153 0.000000
vt -0.692853 -2.457356 0.000000
vt 0.000000 -2.643005 0.000000
vt 0.692853 -2.457356 0.000000
vt 1.200056 -1.950153 0.000000
vt 1.385705 -1.257300 0.000000
vt 1.200056 -0.564447 0.000000
vt 0.692853 -0.057244 0.000000
vt 0.051764 0.000000 0.000000
vt 0.051764 0.732568 0.000000
vt 0.051764 1.465137 0.000000
vt 0.051764 2.197705 0.000000
vt 0.051764 2.930274 0.000000
vt 0.051764 3.662842 0.000000
vt 0.051764 -4.395411 0.000000
vt 0.051764 -3.662842 0.000000
vt 0.051764 -2.930274 0.000000
vt 0.051764 -2.197705 0.000000
vt 0.051764 -1.465137 0.000000
vt 0.051764 -0.732568 0.000000
vt -0.051764 0.000000 0.000000
vt -0.051764 -0.732568 0.000000
vt -0.051764 -1.465137 0.000000
vt -0.051764 -2.197705 0.000000
vt -0.051764 -2.930274 0.000000
vt -0.051764 -3.662842 0.000000
vt -0.051764 4.395411 0.000000
vt -0.051764 3.662842 0.000000
vt -0.051764 2.930274 0.000000
vt -0.051764 2.197705 0.000000
vt -0.051764 1.465137 0.000000
vt -0.051764 0.732568 0.000000
vt -0.051764 -4.395411 0.000000
vt 0.051764 4.395411 0.000000
vt 2.500000 0.000000 0.000000
vt 2.500000 0.739583 0.000000
vt 2.500000 1.479167 0.000000
vt 2.500000 2.218750 0.000000
vt 2.500000 2.958333 0.000000
vt 2.500000 3.697916 0.000000
vt 2.500000 -4.437500 0.000000
vt 2.500000 -3.697916 0.000000
vt 2.500000 -2.958333 0.000000
vt 2.500000 -2.218750 0.000000
vt 2.500000 -1.479167 0.000000
vt 2.500000 -0.739583 0.000000
vt -2.500000 0.000000 0.000000
vt -2.500000 -0.739583 0.000000
vt -2.500000 -1.479167 0.000000
vt -2.500000 -2.218750 0.000000
vt -2.500000 -2.958333 0.000000
vt -2.500000 -3.697916 0.000000
vt -2.500000 4.437500 0.000000
vt -2.500000 3.697916 0.000000
vt -2.500000 2.958333 0.000000
vt -2.500000 2.218750 0.000000
vt -2.500000 1.479167 0.000000
vt -2.500000 0.739583 0.000000
vt -2.500000 -4.437500 0.000000
vt 2.500000 4.437500 0.000000
vt 0.051764 0.000000 0.000000
vt 0.051764 0.732568 0.000000
vt 0.051764 1.465137 0.000000
vt 0.051764 2.197705 0.000000
vt 0.051764 2.930274 0.000000
vt 0.051764 3.662842 0.000000
vt 0.051764 -4.395411 0.000000
vt 0.051764 -3.662842 0.000000
vt 0.051764 -2.930274 0.000000
vt 0.051764 -2.197705 0.000000
vt 0.051764 -1.465137 0.000000
vt 0.051764 -0.732568 0.000000
vt -0.051764 0.000000 0.000000
vt -0.051764 -0.732568 0.000000
vt -0.051764 -1.465137 0.000000
vt -0.051764 -2.197705 0.000000
vt -0.051764 -2.930274 0.000000
vt -0.051764 -3.662842 0.000000
vt -0.051764 4.395411 0.000000
vt -0.051764 3.662842 0.000000
vt -0.051764 2.930274 0.000000
vt -0.051764 2.197705 0.000000
vt -0.051764 1.465137 0.000000
vt -0.051764 0.732568 0.000000
vt -0.051764 -4.395411 0.000000
vt 0.051764 4.395411 0.000000
vt 2.600000 -2.758490 0.000000
vt -2.600000 -2.758490 0.000000
vt -2.600000 -3.354207 0.000000
vt -2.600000 3.949925 0.000000
vt -2.600000 3.354207 0.000000
vt -2.600000 2.758490 0.000000
vt 2.600000 2.758490 0.000000
vt 2.600000 3.354207 0.000000
vt 2.600000 -3.949925 0.000000
vt 2.600000 -3.354207 0.000000
vt -2.600000 -3.949925 0.000000
vt 2.600000 3.949925 0.000000
vn -0.086603 0.000000 0.050000
vn -0.086603 0.000000 0.050000
vn -0.086603 0.000000 0.050000
vn -0.086603 0.000000 0.050000
vn 0.050000 0.000000 0.086603
vn 0.050000 0.000000 0.086603
vn 0.050000 0.000000 0.086603
vn 0.050000 0.000000 0.086603
vn 0.086603 0.000000 -0.050000
vn 0.086603 0.000000 -0.050000
vn 0.086603 0.000000 -0.050000
vn 0.086603 0.000000 -0.050000
vn 0.086603 0.000000 0.050000
vn 0.086603 0.000000 0.050000
vn 0.086603 0.000000 0.050000
vn 0.086603 0.000000 0.050000
vn 0.050000 0.000000 -0.086603
vn 0.050000 0.000000 -0.086603
vn 0.050000 0.000000 -0.086603
vn 0.050000 0.000000 -0.086603
vn -0.086603 0.000000 -0.050000
vn -0.086603 0.000000 -0.050000
vn -0.086603 0.000000 -0.050000
vn -0.086603 0.000000 -0.050000
vn 0.000000 0.100000 0.000000
vn 0.000000 0.100000 0.000000
vn 0.000000 0.100000 0.000000
vn 0.000000 0.100000 0.000000
vn 0.000000 0.100000 0.000000
vn 0.000000 0.100000 0.000000
vn 0.000000 0.100000 0.000000
vn 0.000000 0.100000 0.000000
vn 0.000000 0.100000 0.000000
vn 0.000000 0.100000 0.000000
vn 0.000000 0.100000 0.000000
vn 0.000000 0.100000 0.000000
vn 0.000000 0.100000 0.000000
vn 0.000000 0.100000 0.000000
vn 0.000000 0.100000 0.000000
vn 0.000000 0.100000 0.000000
vn 0.000000 0.100000 0.000000
vn 0.000000 0.100000 0.000000
vn 0.000000 0.100000 0.000000
vn 0.000000 0.100000 0.000000
vn 0.000000 0.100000 0.000000
vn 0.000000 0.100000 0.000000
vn 0.000000 0.100000 0.000000
vn 0.000000 0.100000 0.000000
vn 0.000000 0.100000 0.000000
vn 0.000000 0.100000 0.000000
vn 0.000000 0.100000 0.000000
vn 0.000000 0.100000 0.000000
vn 0.000000 0.100000 0.000000
vn 0.000000 0.100000 0.000000
vn 0.000000 0.100000 0.000000
vn 0.000000 0.100000 0.000000
vn 0.000000 0.100000 0.000000
vn 0.041142 0.000000 0.091144
vn 0.041142 0.000000 0.091144
vn -0.004977 0.000000 0.099876
vn -0.050000 0.000000 0.086603
vn -0.084007 0.000000 0.054248
vn -0.099505 0.000000 0.009942
vn -0.099505 0.000000 0.009942
vn -0.084007 0.000000 0.054248
vn -0.050000 0.000000 0.086603
vn -0.004977 0.000000 0.099876
vn 0.041142 0.000000 -0.091144
vn 0.041142 0.000000 -0.091144
vn -0.004977 0.000000 -0.099876
vn -0.050000 0.000000 -0.086603
vn -0.084007 0.000000 -0.054248
vn -0.099505 0.000000 -0.009942
vn -0.099505 0.000000 -0.009942
vn -0.084007 0.000000 -0.054248
vn -0.050000 0.000000 -0.086603
vn -0.004977 0.000000 -0.099876
vn 0.000000 0.000000 -0.100000
vn 0.000000 0.000000 -0.100000
vn 0.000000 0.000000 -0.100000
vn 0.000000 0.000000 -0.100000
vn -0.100000 0.000000 0.000000
vn -0.100000 0.000000 0.000000
vn -0.100000 0.000000 0.000000
vn -0.100000 0.000000 0.000000
vn 0.000000 0.000000 0.100000
vn 0.000000 0.000000 0.100000
vn 0.000000 0.000000 0.100000
vn 0.000000 0.000000 0.100000
vn 0.000000 -0.100000 0.000000
vn 0.000000 -0.100000 0.000000
vn 0.000000 -0.100000 0.000000
vn 0.000000 -0.100000 0.000000
vn 0.000000 -0.100000 0.000000
vn 0.000000 -0.100000 0.000000
vn 0.000000 -0.100000 0.000000
vn 0.000000 -0.100000 0.000000
vn 0.000000 -0.100000 0.000000
vn 0.000000 -0.100000 0.000000
vn 0.000000 -0.100000 0.000000
vn 0.000000 -0.100000 0.000000
vn 0.000000 -0.100000 0.000000
vn 0.000000 -0.100000 0.000000
vn 0.000000 -0.100000 0.000000
vn 0.000000 -0.100000 0.000000
vn 0.000000 -0.100000 0.000000
vn 0.000000 -0.100000 0.000000
vn 0.000000 -0.100000 0.000000
vn 0.000000 -0.100000 0.000000
vn 0.000000 -0.100000 0.000000
vn 0.000000 -0.100000 0.000000
vn 0.000000 -0.100000 0.000000
vn 0.000000 -0.100000 0.000000
vn 0.000000 -0.100000 0.000000
vn 0.000000 -0.100000 0.000000
vn 0.000000 -0.100000 0.000000
vn 0.000000 -0.100000 0.000000
vn 0.000000 -0.100000 0.000000
vn 0.000000 -0.100000 0.000000
vn 0.000000 -0.100000 0.000000
vn 0.000000 -0.100000 0.000000
vn 0.000000 -0.100000 0.000000
vn 0.096593 0.025882 0.000000
vn 0.083652 0.025882 0.048296
vn 0.048296 0.025882 0.083652
vn 0.000000 0.025882 0.096593
vn -0.048296 0.025882 0.083652
vn -0.083652 0.025882 0.048296
vn -0.096593 0.025882 0.000000
vn -0.083652 0.025882 -0.048296
vn -0.048296 0.025882 -0.083652
vn 0.000000 0.025882 -0.096593
vn 0.048296 0.025882 -0.083652
vn 0.083652 0.025882 -0.048296
vn 0.096593 0.025882 0.000000
vn 0.083652 0.025882 -0.048296
vn 0.048296 0.025882 -0.083652
vn 0.000000 0.025882 -0.096593
vn -0.048296 0.025882 -0.083652
vn -0.083652 0.025882 -0.048296
vn -0.096593 0.025882 0.000000
vn -0.083652 0.025882 0.048296
vn -0.048296 0.025882 0.083652
vn 0.000000 0.025882 0.096593
vn 0.048296 0.025882 0.083652
vn 0.083652 0.025882 0.048296
vn -0.096593 0.025882 0.000000
vn -0.096593 0.025882 0.000000
vn 0.100000 0.000000 0.000000
vn 0.086603 0.000000 0.050000
vn 0.050000 0.000000 0.086603
vn 0.000000 0.000000 0.100000
vn -0.050000 0.000000 0.086603
vn -0.086603 0.000000 0.050000
vn -0.100000 0.000000 0.000000
vn -0.086603 0.000000 -0.050000
vn -0.050000 0.000000 -0.086603
vn 0.000000 0.000000 -0.100000
vn 0.050000 0.000000 -0.086603
vn 0.086603 0.000000 -0.050000
vn 0.100000 0.000000 0.000000
vn 0.086603 0.000000 -0.050000
vn 0.050000 0.000000 -0.086603
vn 0.000000 0.000000 -0.100000
vn -0.050000 0.000000 -0.086603
vn -0.086603 0.000000 -0.050000
vn -0.100000 0.000000 0.000000
vn -0.086603 0.000000 0.050000
vn -0.050000 0.000000 0.086603
vn 0.000000 0.000000 0.100000
vn 0.050000 0.000000 0.086603
vn 0.086603 0.000000 0.050000
vn -0.100000 0.000000 0.000000
vn -0.100000 0.000000 0.000000
vn 0.096593 -0.025882 0.000000
vn 0.083652 -0.025882 0.048296
vn 0.048296 -0.025882 0.083652
vn 0.000000 -0.025882 0.096593
vn -0.048296 -0.025882 0.083652
vn -0.083652 -0.025882 0.048296
vn -0.096593 -0.025882 0.000000
vn -0.083652 -0.025882 -0.048296
vn -0.048296 -0.025882 -0.083652
vn 0.000000 -0.025882 -0.096593
vn 0.048296 -0.025882 -0.083652
vn 0.083652 -0.025882 -0.048296
vn 0.096593 -0.025882 0.000000
vn 0.083652 -0.025882 -0.048296
vn 0.048296 -0.025882 -0.083652
vn 0.000000 -0.025882 -0.096593
vn -0.048296 -0.025882 -0.083652
vn -0.083652 -0.025882 -0.048296
vn -0.096593 -0.025882 0.000000
vn -0.083652 -0.025882 0.048296
vn -0.048296 -0.025882 0.083652
vn 0.000000 -0.025882 0.096593
vn 0.048296 -0.025882 0.083652
vn 0.083652 -0.025882 0.048296
vn -0.096593 -0.025882 0.000000
vn -0.096593 -0.025882 0.000000
vn 0.058362 0.000000 0.081203
vn 0.058362 0.000000 0.081203
vn 0.088984 0.000000 0.045628
vn 0.100000 0.000000 0.000000
vn 0.088984 0.000000 -0.045628
vn 0.058362 0.000000 -0.081203
vn 0.058362 0.000000 -0.081203
vn 0.088984 0.000000 -0.045628
vn 0.100000 0.000000 0.000000
vn 0.088984 0.000000 0.045628
vn 0.100000 0.000000 0.000000
vn 0.100000 0.000000 0.000000
usemtl 191,191,191
f 35/1/1 39/2/2 37/4/4
f 37/4/4 39/2/2 41/3/3
f 19/5/5 35/6/6 21/8/8
f 21/8/8 35/6/6 37/7/7
f 23/9/9 19/10/10 25/12/12
f 25/12/12 19/10/10 21/11/11
f 20/13/13 24/14/14 22/16/16
f 22/16/16 24/14/14 26/15/15
f 36/17/17 20/18/18 38/20/20
f 38/20/20 20/18/18 22/19/19
f 40/21/21 36/22/22 42/24/24
f 42/24/24 36/22/22 38/23/23
f 73/26/26 85/45/45 88/25/25
f 88/25/25 85/45/45 86/46/46
f 88/25/25 86/46/46 74/36/36
f 74/36/36 86/46/46 82/47/47
f 74/36/36 82/47/47 70/48/48
f 61/27/27 69/43/43 73/26/26
f 73/26/26 69/43/43 81/44/44
f 73/26/26 81/44/44 85/45/45
f 49/28/28 53/41/41 61/27/27
f 61/27/27 53/41/41 57/42/42
f 61/27/27 57/42/42 69/43/43
f 53/41/41 49/28/28 37/39/39
f 37/39/39 49/28/28 33/29/29
f 37/39/39 33/29/29 21/38/38
f 21/38/38 33/29/29 13/30/30
f 21/38/38 13/30/30 25/37/37
f 25/37/37 13/30/30 17/57/57
f 17/57/57 13/30/30 4/31/31
f 17/57/57 4/31/31 6/56/56
f 6/56/56 4/31/31 18/55/55
f 18/55/55 4/31/31 14/32/32
f 18/55/55 14/32/32 26/54/54
f 26/54/54 14/32/32 22/53/53
f 22/53/53 14/32/32 34/33/33
f 22/53/53 34/33/33 38/52/52
f 38/52/52 34/33/33 50/34/34
f 38/52/52 50/34/34 54/50/50
f 54/50/50 50/34/34 62/35/35
f 54/50/50 62/35/35 58/49/49
f 58/49/49 62/35/35 70/48/48
f 70/48/48 62/35/35 74/36/36
f 37/39/39 41/40/40 53/41/41
f 54/50/50 42/51/51 38/52/52
f 41/58/58 39/59/59 53/67/67
f 53/67/67 39/59/59 51/60/60
f 53/67/67 51/60/60 55/61/61
f 53/67/67 55/61/61 57/66/66
f 57/66/66 55/61/61 67/62/62
f 57/66/66 67/62/62 69/65/65
f 69/65/65 67/62/62 79/63/63
f 69/65/65 79/63/63 81/64/64
f 40/68/68 42/69/69 52/77/77
f 52/77/77 42/69/69 54/70/70
f 52/77/77 54/70/70 58/71/71
f 52/77/77 58/71/71 56/76/76
f 56/76/76 58/71/71 70/72/72
f 56/76/76 70/72/72 68/75/75
f 68/75/75 70/72/72 82/73/73
f 68/75/75 82/73/73 80/74/74
f 84/78/78 80/79/79 86/81/81
f 86/81/81 80/79/79 82/80/80
f 83/82/82 84/83/83 85/85/85
f 85/85/85 84/83/83 86/84/84
f 79/86/86 83/87/87 81/89/89
f 81/89/89 83/87/87 85/88/88
f 23/91/91 11/118/118 19/90/90
f 19/90/90 11/118/118 31/119/119
f 19/90/90 31/119/119 35/110/110
f 35/110/110 31/119/119 43/120/120
f 35/110/110 43/120/120 39/109/109
f 39/109/109 43/120/120 51/108/108
f 51/108/108 43/120/120 59/121/121
f 51/108/108 59/121/121 55/107/107
f 55/107/107 59/121/121 67/106/106
f 67/106/106 59/121/121 71/122/122
f 67/106/106 71/122/122 79/105/105
f 79/105/105 71/122/122 83/104/104
f 83/104/104 71/122/122 87/111/111
f 83/104/104 87/111/111 84/103/103
f 84/103/103 87/111/111 72/112/112
f 84/103/103 72/112/112 80/102/102
f 80/102/102 72/112/112 68/101/101
f 68/101/101 72/112/112 60/113/113
f 68/101/101 60/113/113 56/100/100
f 56/100/100 60/113/113 52/99/99
f 52/99/99 60/113/113 44/114/114
f 52/99/99 44/114/114 40/98/98
f 40/98/98 44/114/114 36/97/97
f 36/97/97 44/114/114 32/115/115
f 36/97/97 32/115/115 20/96/96
f 20/96/96 32/115/115 12/116/116
f 20/96/96 12/116/116 24/95/95
f 24/95/95 12/116/116 16/94/94
f 16/94/94 12/116/116 3/117/117
f 16/94/94 3/117/117 5/93/93
f 5/93/93 3/117/117 15/92/92
f 15/92/92 3/117/117 11/118/118
f 15/92/92 11/118/118 23/91/91
f 74/124/124 78/146/146 88/123/123
f 88/123/123 78/146/146 90/135/135
f 88/123/123 90/135/135 73/134/134
f 73/134/134 90/135/135 77/136/136
f 73/134/134 77/136/136 61/133/133
f 61/133/133 77/136/136 65/137/137
f 61/133/133 65/137/137 49/132/132
f 49/132/132 65/137/137 47/138/138
f 49/132/132 47/138/138 33/131/131
f 33/131/131 47/138/138 29/139/139
f 33/131/131 29/139/139 13/130/130
f 13/130/130 29/139/139 9/140/140
f 13/130/130 9/140/140 4/129/129
f 4/129/129 9/140/140 2/147/147
f 4/148/148 2/141/141 14/128/128
f 14/128/128 2/141/141 10/142/142
f 14/128/128 10/142/142 34/127/127
f 34/127/127 10/142/142 30/143/143
f 34/127/127 30/143/143 50/126/126
f 50/126/126 30/143/143 48/144/144
f 50/126/126 48/144/144 62/125/125
f 62/125/125 48/144/144 66/145/145
f 62/125/125 66/145/145 74/124/124
f 74/124/124 66/145/145 78/146/146
f 78/150/150 76/172/172 90/149/149
f 90/149/149 76/172/172 89/161/161
f 90/149/149 89/161/161 77/160/160
f 77/160/160 89/161/161 75/162/162
f 77/160/160 75/162/162 65/159/159
f 65/159/159 75/162/162 63/163/163
f 65/159/159 63/163/163 47/158/158
f 47/158/158 63/163/163 45/164/164
f 47/158/158 45/164/164 29/157/157
f 29/157/157 45/164/164 27/165/165
f 29/157/157 27/165/165 9/156/156
f 9/156/156 27/165/165 7/166/166
f 9/156/156 7/166/166 2/155/155
f 2/155/155 7/166/166 1/173/173
f 2/174/174 1/167/167 10/154/154
f 10/154/154 1/167/167 8/168/168
f 10/154/154 8/168/168 30/153/153
f 30/153/153 8/168/168 28/169/169
f 30/153/153 28/169/169 48/152/152
f 48/152/152 28/169/169 46/170/170
f 48/152/152 46/170/170 66/151/151
f 66/151/151 46/170/170 64/171/171
f 66/151/151 64/171/171 78/150/150
f 78/150/150 64/171/171 76/172/172
f 76/176/176 72/198/198 89/175/175
f 89/175/175 72/198/198 87/187/187
f 89/175/175 87/187/187 75/186/186
f 75/186/186 87/187/187 71/188/188
f 75/186/186 71/188/188 63/185/185
f 63/185/185 71/188/188 59/189/189
f 63/185/185 59/189/189 45/184/184
f 45/184/184 59/189/189 43/190/190
f 45/184/184 43/190/190 27/183/183
f 27/183/183 43/190/190 31/191/191
f 27/183/183 31/191/191 7/182/182
f 7/182/182 31/191/191 11/192/192
f 7/182/182 11/192/192 1/181/181
f 1/181/181 11/192/192 3/199/199
f 1/200/200 3/193/193 8/180/180
f 8/180/180 3/193/193 12/194/194
f 8/180/180 12/194/194 28/179/179
f 28/179/179 12/194/194 32/195/195
f 28/179/179 32/195/195 46/178/178
f 46/178/178 32/195/195 44/196/196
f 46/178/178 44/196/196 64/177/177
f 64/177/177 44/196/196 60/197/197
f 64/177/177 60/197/197 76/176/176
f 76/176/176 60/197/197 72/198/198
f 25/202/202 17/203/203 23/201/201
f 23/201/201 17/203/203 15/210/210
f 15/210/210 17/203/203 5/209/209
f 5/209/209 17/203/203 6/211/211
f 5/212/212 6/204/204 16/208/208
f 16/208/208 6/204/204 18/205/205
f 16/208/208 18/205/205 26/206/206
f 26/206/206 24/207/207 16/208/208

# 90 vertices
# 212 texture params
# 212 normals
# 180 facets

# 1 groups
