# WaveFront *.obj file (generated by Autodesk ATF)

mtllib 74. Ролик вала.mtl

g Твердое тело1

v -3.500000 -8.500000 0.000000
v -3.500000 8.500000 0.000000
v -2.944387 -8.500000 -1.892243
v -2.944387 -8.500000 1.892243
v -2.944387 8.500000 -1.892243
v -2.944387 8.500000 1.892243
v -1.453952 -8.500000 -3.183712
v -1.453952 -8.500000 3.183712
v -1.453952 8.500000 -3.183712
v -1.453952 8.500000 3.183712
v 0.498102 -8.500000 -3.464375
v 0.498102 -8.500000 3.464375
v 0.498102 8.500000 -3.464375
v 0.498102 8.500000 3.464375
v 2.292013 -8.500000 -2.645124
v 2.292013 -8.500000 2.645124
v 2.292013 8.500000 -2.645124
v 2.292013 8.500000 2.645124
v 3.358226 -8.500000 -0.986064
v 3.358226 -8.500000 0.986064
v 3.358226 8.500000 -0.986064
v 3.358226 8.500000 0.986064
vt -0.000000 -0.350000 0.000000
vt 0.189224 -0.294439 0.000000
vt 0.318371 -0.145395 0.000000
vt 0.346438 0.049810 0.000000
vt 0.264512 0.229201 0.000000
vt 0.098606 0.335823 0.000000
vt -0.098606 0.335823 0.000000
vt -0.264512 0.229201 0.000000
vt -0.346438 0.049810 0.000000
vt -0.318371 -0.145395 0.000000
vt -0.189224 -0.294439 0.000000
vt 0.850000 0.000000 0.000000
vt 0.850000 0.199920 0.000000
vt 0.850000 0.399839 0.000000
vt 0.850000 0.599759 0.000000
vt 0.850000 0.799678 0.000000
vt 0.850000 0.999598 0.000000
vt 0.850000 -0.999598 0.000000
vt 0.850000 -0.799678 0.000000
vt 0.850000 -0.599759 0.000000
vt 0.850000 -0.399839 0.000000
vt 0.850000 -0.199920 0.000000
vt -0.850000 0.000000 0.000000
vt -0.850000 -0.199920 0.000000
vt -0.850000 -0.399839 0.000000
vt -0.850000 -0.599759 0.000000
vt -0.850000 -0.799678 0.000000
vt -0.850000 1.199517 0.000000
vt -0.850000 0.999598 0.000000
vt -0.850000 0.799678 0.000000
vt -0.850000 0.599759 0.000000
vt -0.850000 0.399839 0.000000
vt -0.850000 0.199920 0.000000
vt -0.850000 -0.999598 0.000000
vt -0.850000 -0.999598 0.000000
vt 0.850000 1.199517 0.000000
vt 0.850000 1.199517 0.000000
vt 0.000000 -0.350000 0.000000
vt 0.189224 -0.294439 0.000000
vt 0.318371 -0.145395 0.000000
vt 0.346438 0.049810 0.000000
vt 0.264512 0.229201 0.000000
vt 0.098606 0.335823 0.000000
vt -0.098606 0.335823 0.000000
vt -0.264512 0.229201 0.000000
vt -0.346438 0.049810 0.000000
vt -0.318371 -0.145395 0.000000
vt -0.189224 -0.294439 0.000000
vn 0.000000 -0.100000 0.000000
vn 0.000000 -0.100000 0.000000
vn 0.000000 -0.100000 0.000000
vn 0.000000 -0.100000 0.000000
vn 0.000000 -0.100000 0.000000
vn 0.000000 -0.100000 0.000000
vn 0.000000 -0.100000 0.000000
vn 0.000000 -0.100000 0.000000
vn 0.000000 -0.100000 0.000000
vn 0.000000 -0.100000 0.000000
vn 0.000000 -0.100000 0.000000
vn -0.100000 0.000000 0.000000
vn -0.084125 0.000000 0.054064
vn -0.041542 0.000000 0.090963
vn 0.014231 0.000000 0.098982
vn 0.065486 0.000000 0.075575
vn 0.095949 0.000000 0.028173
vn 0.095949 0.000000 -0.028173
vn 0.065486 0.000000 -0.075575
vn 0.014231 0.000000 -0.098982
vn -0.041542 0.000000 -0.090963
vn -0.084125 0.000000 -0.054064
vn -0.100000 0.000000 0.000000
vn -0.084125 0.000000 -0.054064
vn -0.041542 0.000000 -0.090963
vn 0.014231 0.000000 -0.098982
vn 0.065486 0.000000 -0.075575
vn 0.095949 0.000000 -0.028173
vn 0.095949 0.000000 0.028173
vn 0.065486 0.000000 0.075575
vn 0.014231 0.000000 0.098982
vn -0.041542 0.000000 0.090963
vn -0.084125 0.000000 0.054064
vn 0.095949 0.000000 -0.028173
vn 0.095949 0.000000 -0.028173
vn 0.095949 0.000000 -0.028173
vn 0.095949 0.000000 -0.028173
vn 0.000000 0.100000 0.000000
vn 0.000000 0.100000 0.000000
vn 0.000000 0.100000 0.000000
vn 0.000000 0.100000 0.000000
vn 0.000000 0.100000 0.000000
vn 0.000000 0.100000 0.000000
vn 0.000000 0.100000 0.000000
vn 0.000000 0.100000 0.000000
vn 0.000000 0.100000 0.000000
vn 0.000000 0.100000 0.000000
vn 0.000000 0.100000 0.000000
usemtl 191,191,191
f 3/2/2 19/6/6 1/1/1
f 1/1/1 19/6/6 20/7/7
f 1/1/1 20/7/7 4/11/11
f 4/11/11 20/7/7 16/8/8
f 4/11/11 16/8/8 8/10/10
f 8/10/10 16/8/8 12/9/9
f 19/6/6 3/2/2 15/5/5
f 15/5/5 3/2/2 7/3/3
f 15/5/5 7/3/3 11/4/4
f 4/13/13 2/23/23 1/12/12
f 1/12/12 2/23/23 5/24/24
f 1/12/12 5/24/24 3/22/22
f 3/22/22 5/24/24 9/25/25
f 3/22/22 9/25/25 7/21/21
f 7/21/21 9/25/25 13/26/26
f 7/21/21 13/26/26 11/20/20
f 11/20/20 13/26/26 17/27/27
f 11/20/20 17/27/27 15/19/19
f 15/19/19 17/27/27 21/34/34
f 15/19/19 21/35/35 19/18/18
f 19/36/36 21/28/28 22/29/29
f 19/37/37 22/29/29 20/17/17
f 20/17/17 22/29/29 18/30/30
f 20/17/17 18/30/30 16/16/16
f 16/16/16 18/30/30 14/31/31
f 16/16/16 14/31/31 12/15/15
f 12/15/15 14/31/31 10/32/32
f 12/15/15 10/32/32 8/14/14
f 8/14/14 10/32/32 6/33/33
f 8/14/14 6/33/33 4/13/13
f 4/13/13 6/33/33 2/23/23
f 6/39/39 22/43/43 2/38/38
f 2/38/38 22/43/43 21/44/44
f 2/38/38 21/44/44 5/48/48
f 5/48/48 21/44/44 17/45/45
f 5/48/48 17/45/45 9/47/47
f 9/47/47 17/45/45 13/46/46
f 22/43/43 6/39/39 18/42/42
f 18/42/42 6/39/39 10/40/40
f 18/42/42 10/40/40 14/41/41

# 22 vertices
# 48 texture params
# 48 normals
# 40 facets

# 1 groups
