# WaveFront *.obj file (generated by Autodesk ATF)

mtllib 74. Кольцо распорное.mtl

g Твердое тело1

v -21.030173 -11.000000 -4.470101
v -21.030173 -11.000000 4.470101
v -21.030173 11.000000 -4.470101
v -21.030173 11.000000 4.470101
v -18.000000 -11.000000 0.000000
v -18.000000 11.000000 0.000000
v -17.393866 -11.000000 -12.637383
v -17.393866 -11.000000 12.637383
v -17.393866 11.000000 -12.637383
v -17.393866 11.000000 12.637383
v -16.991482 -10.500000 -4.188024
v -16.991482 -10.500000 4.188024
v -16.991482 10.500000 -4.188024
v -16.991482 10.500000 4.188024
v -16.217439 -11.000000 -7.809907
v -16.217439 -11.000000 7.809907
v -16.217439 11.000000 -7.809907
v -16.217439 11.000000 7.809907
v -13.098938 -10.500000 -11.604646
v -13.098938 -10.500000 11.604646
v -13.098938 10.500000 -11.604646
v -13.098938 10.500000 11.604646
v -11.222817 -11.000000 -14.072967
v -11.222817 -11.000000 14.072967
v -11.222817 11.000000 -14.072967
v -11.222817 11.000000 14.072967
v -10.750000 -11.000000 -18.619546
v -10.750000 -11.000000 18.619546
v -10.750000 11.000000 -18.619546
v -10.750000 11.000000 18.619546
v -6.205586 -10.500000 -16.362784
v -6.205586 -10.500000 16.362784
v -6.205586 10.500000 -16.362784
v -6.205586 10.500000 16.362784
v -4.005377 -11.000000 -17.548703
v -4.005377 -11.000000 17.548703
v -4.005377 11.000000 -17.548703
v -4.005377 11.000000 17.548703
v -2.247362 -11.000000 -21.382220
v -2.247362 -11.000000 21.382220
v -2.247362 11.000000 -21.382220
v -2.247362 11.000000 21.382220
v 2.109392 -10.500000 -17.372406
v 2.109392 -10.500000 17.372406
v 2.109392 10.500000 -17.372406
v 2.109392 10.500000 17.372406
v 4.005377 -11.000000 -17.548703
v 4.005377 -11.000000 17.548703
v 4.005377 11.000000 -17.548703
v 4.005377 11.000000 17.548703
v 6.643865 -11.000000 -20.447714
v 6.643865 -11.000000 20.447714
v 6.643865 11.000000 -20.447714
v 6.643865 11.000000 20.447714
v 9.941133 -10.500000 -14.402218
v 9.941133 -10.500000 14.402218
v 9.941133 10.500000 -14.402218
v 9.941133 10.500000 14.402218
v 11.222817 -11.000000 -14.072967
v 11.222817 -11.000000 14.072967
v 11.222817 11.000000 -14.072967
v 11.222817 11.000000 14.072967
v 14.386308 -11.000000 -15.977614
v 14.386308 -11.000000 15.977614
v 14.386308 11.000000 -15.977614
v 14.386308 11.000000 15.977614
v 15.495480 -10.500000 -8.132656
v 15.495480 -10.500000 8.132656
v 15.495480 10.500000 -8.132656
v 15.495480 10.500000 8.132656
v 16.217439 -11.000000 -7.809907
v 16.217439 -11.000000 7.809907
v 16.217439 11.000000 -7.809907
v 16.217439 11.000000 7.809907
v 17.500000 -10.500000 0.000000
v 17.500000 10.500000 0.000000
v 18.000000 -11.000000 0.000000
v 18.000000 11.000000 0.000000
v 19.641228 -11.000000 -8.744838
v 19.641228 -11.000000 8.744838
v 19.641228 11.000000 -8.744838
v 19.641228 11.000000 8.744838
v 21.500001 -11.000000 0.000000
v 21.500001 11.000000 0.000000
vt 0.035355 0.000000 0.000000
vt 0.035355 0.796618 0.000000
vt 0.035355 1.593236 0.000000
vt 0.035355 2.389854 0.000000
vt 0.035355 3.186472 0.000000
vt 0.035355 3.983091 0.000000
vt 0.035355 4.779708 0.000000
vt 0.035355 -5.576327 0.000000
vt 0.035355 -4.779708 0.000000
vt 0.035355 -3.983091 0.000000
vt 0.035355 -3.186472 0.000000
vt 0.035355 -2.389854 0.000000
vt 0.035355 -1.593236 0.000000
vt 0.035355 -0.796618 0.000000
vt -0.035355 0.000000 0.000000
vt -0.035355 -0.857896 0.000000
vt -0.035355 -1.715793 0.000000
vt -0.035355 -2.573689 0.000000
vt -0.035355 -3.431586 0.000000
vt -0.035355 -4.289482 0.000000
vt -0.035355 6.005275 0.000000
vt -0.035355 5.147378 0.000000
vt -0.035355 4.289482 0.000000
vt -0.035355 3.431586 0.000000
vt -0.035355 2.573689 0.000000
vt -0.035355 1.715793 0.000000
vt -0.035355 0.857896 0.000000
vt 0.035355 5.576327 0.000000
vt 0.035355 5.576327 0.000000
vt -0.035355 -5.147379 0.000000
vt -0.035355 -5.147379 0.000000
vt 1.050000 0.000000 0.000000
vt 1.050000 0.845813 0.000000
vt 1.050000 1.691627 0.000000
vt 1.050000 2.537440 0.000000
vt 1.050000 3.383254 0.000000
vt 1.050000 4.229067 0.000000
vt 1.050000 5.074881 0.000000
vt 1.050000 -5.074881 0.000000
vt 1.050000 -4.229067 0.000000
vt 1.050000 -3.383254 0.000000
vt 1.050000 -2.537440 0.000000
vt 1.050000 -1.691627 0.000000
vt 1.050000 -0.845813 0.000000
vt -1.050000 0.000000 0.000000
vt -1.050000 -0.845813 0.000000
vt -1.050000 -1.691627 0.000000
vt -1.050000 -2.537440 0.000000
vt -1.050000 -3.383254 0.000000
vt -1.050000 -4.229067 0.000000
vt -1.050000 5.920694 0.000000
vt -1.050000 5.074881 0.000000
vt -1.050000 4.229067 0.000000
vt -1.050000 3.383254 0.000000
vt -1.050000 2.537440 0.000000
vt -1.050000 1.691627 0.000000
vt -1.050000 0.845813 0.000000
vt -1.050000 -5.074881 0.000000
vt -1.050000 -5.074881 0.000000
vt 1.050000 5.920694 0.000000
vt 1.050000 5.920694 0.000000
vt 0.035355 0.000000 0.000000
vt 0.035355 0.857896 0.000000
vt 0.035355 1.715793 0.000000
vt 0.035355 2.573689 0.000000
vt 0.035355 3.431586 0.000000
vt 0.035355 4.289482 0.000000
vt 0.035355 -6.005275 0.000000
vt 0.035355 -5.147378 0.000000
vt 0.035355 -4.289482 0.000000
vt 0.035355 -3.431586 0.000000
vt 0.035355 -2.573689 0.000000
vt 0.035355 -1.715793 0.000000
vt 0.035355 -0.857896 0.000000
vt -0.035355 0.000000 0.000000
vt -0.035355 -0.796618 0.000000
vt -0.035355 -1.593236 0.000000
vt -0.035355 -2.389854 0.000000
vt -0.035355 -3.186472 0.000000
vt -0.035355 -3.983091 0.000000
vt -0.035355 -4.779708 0.000000
vt -0.035355 5.576327 0.000000
vt -0.035355 4.779708 0.000000
vt -0.035355 3.983091 0.000000
vt -0.035355 3.186472 0.000000
vt -0.035355 2.389854 0.000000
vt -0.035355 1.593236 0.000000
vt -0.035355 0.796618 0.000000
vt 0.035355 5.147379 0.000000
vt 0.035355 5.147379 0.000000
vt -0.035355 -5.576327 0.000000
vt -0.035355 -5.576327 0.000000
vt 0.000000 -0.350000 0.000000
vt 0.780991 -0.528256 0.000000
vt 1.407297 -1.027718 0.000000
vt 1.754870 -1.749462 0.000000
vt 1.754870 -2.550538 0.000000
vt 1.407297 -3.272282 0.000000
vt 0.780991 -3.771744 0.000000
vt 0.000000 -3.950000 0.000000
vt -0.780991 -3.771744 0.000000
vt -1.407297 -3.272282 0.000000
vt -1.754870 -2.550538 0.000000
vt -1.754870 -1.749462 0.000000
vt -1.407297 -1.027718 0.000000
vt -0.780991 -0.528256 0.000000
vt 0.000000 0.000000 0.000000
vt -0.874484 -0.185877 0.000000
vt -1.597761 -0.711369 0.000000
vt -2.044771 -1.485613 0.000000
vt -2.138222 -2.374736 0.000000
vt -1.861955 -3.225000 0.000000
vt -1.263738 -3.889387 0.000000
vt -0.447010 -4.253017 0.000000
vt 0.447010 -4.253017 0.000000
vt 1.263738 -3.889387 0.000000
vt 1.861955 -3.225000 0.000000
vt 2.138222 -2.374736 0.000000
vt 2.044771 -1.485613 0.000000
vt 1.597761 -0.711369 0.000000
vt 0.874484 -0.185877 0.000000
vt 1.100000 0.000000 0.000000
vt 1.100000 0.900590 0.000000
vt 1.100000 1.801180 0.000000
vt 1.100000 2.701770 0.000000
vt 1.100000 3.602360 0.000000
vt 1.100000 4.502950 0.000000
vt 1.100000 5.403540 0.000000
vt 1.100000 6.304130 0.000000
vt 1.100000 -6.304130 0.000000
vt 1.100000 -5.403540 0.000000
vt 1.100000 -4.502950 0.000000
vt 1.100000 -3.602360 0.000000
vt 1.100000 -2.701770 0.000000
vt 1.100000 -1.801180 0.000000
vt 1.100000 -0.900590 0.000000
vt -1.100000 0.000000 0.000000
vt -1.100000 -0.900590 0.000000
vt -1.100000 -1.801180 0.000000
vt -1.100000 -2.701770 0.000000
vt -1.100000 -3.602360 0.000000
vt -1.100000 -4.502950 0.000000
vt -1.100000 -5.403540 0.000000
vt -1.100000 7.204720 0.000000
vt -1.100000 6.304130 0.000000
vt -1.100000 5.403540 0.000000
vt -1.100000 4.502950 0.000000
vt -1.100000 3.602360 0.000000
vt -1.100000 2.701770 0.000000
vt -1.100000 1.801180 0.000000
vt -1.100000 0.900590 0.000000
vt -1.100000 -6.304130 0.000000
vt -1.100000 -6.304130 0.000000
vt 1.100000 7.204720 0.000000
vt 1.100000 7.204720 0.000000
vt 0.000000 0.350000 0.000000
vt -0.874484 0.164123 0.000000
vt -1.597761 -0.361369 0.000000
vt -2.044771 -1.135613 0.000000
vt -2.138222 -2.024736 0.000000
vt -1.861955 -2.875000 0.000000
vt -1.263738 -3.539387 0.000000
vt -0.447010 -3.903017 0.000000
vt 0.447010 -3.903017 0.000000
vt 1.263738 -3.539387 0.000000
vt 1.861955 -2.875000 0.000000
vt 2.138222 -2.024736 0.000000
vt 2.044771 -1.135613 0.000000
vt 1.597761 -0.361369 0.000000
vt 0.874484 0.164123 0.000000
vt 0.000000 0.000000 0.000000
vt 0.780991 -0.178256 0.000000
vt 1.407297 -0.677718 0.000000
vt 1.754870 -1.399462 0.000000
vt 1.754870 -2.200538 0.000000
vt 1.407297 -2.922282 0.000000
vt 0.780991 -3.421744 0.000000
vt 0.000000 -3.600000 0.000000
vt -0.780991 -3.421744 0.000000
vt -1.407297 -2.922282 0.000000
vt -1.754870 -2.200538 0.000000
vt -1.754870 -1.399462 0.000000
vt -1.407297 -0.677718 0.000000
vt -0.780991 -0.178256 0.000000
vn -0.070711 -0.070711 0.000000
vn -0.063708 -0.070711 -0.030680
vn -0.044087 -0.070711 -0.055284
vn -0.015735 -0.070711 -0.068938
vn 0.015735 -0.070711 -0.068938
vn 0.044087 -0.070711 -0.055284
vn 0.063708 -0.070711 -0.030680
vn 0.070711 -0.070711 0.000000
vn 0.063708 -0.070711 0.030680
vn 0.044087 -0.070711 0.055284
vn 0.015735 -0.070711 0.068938
vn -0.015735 -0.070711 0.068938
vn -0.044087 -0.070711 0.055284
vn -0.063708 -0.070711 0.030680
vn -0.070711 -0.070711 0.000000
vn -0.062611 -0.070711 0.032861
vn -0.040168 -0.070711 0.058194
vn -0.008523 -0.070711 0.070195
vn 0.025074 -0.070711 0.066116
vn 0.052928 -0.070711 0.046890
vn 0.068656 -0.070711 0.016922
vn 0.068656 -0.070711 -0.016922
vn 0.052928 -0.070711 -0.046890
vn 0.025074 -0.070711 -0.066116
vn -0.008523 -0.070711 -0.070195
vn -0.040168 -0.070711 -0.058194
vn -0.062611 -0.070711 -0.032861
vn 0.070711 -0.070711 0.000000
vn 0.070711 -0.070711 0.000000
vn 0.068656 -0.070711 0.016922
vn 0.068656 -0.070711 0.016922
vn -0.100000 0.000000 0.000000
vn -0.088546 0.000000 -0.046472
vn -0.056806 0.000000 -0.082298
vn -0.012054 0.000000 -0.099271
vn 0.035460 0.000000 -0.093502
vn 0.074851 0.000000 -0.066312
vn 0.097094 0.000000 -0.023932
vn 0.097094 0.000000 0.023932
vn 0.074851 0.000000 0.066312
vn 0.035460 0.000000 0.093502
vn -0.012054 0.000000 0.099271
vn -0.056806 0.000000 0.082298
vn -0.088546 0.000000 0.046472
vn -0.100000 0.000000 0.000000
vn -0.088546 0.000000 0.046472
vn -0.056806 0.000000 0.082298
vn -0.012054 0.000000 0.099271
vn 0.035460 0.000000 0.093502
vn 0.074851 0.000000 0.066312
vn 0.097094 0.000000 0.023932
vn 0.097094 0.000000 -0.023932
vn 0.074851 0.000000 -0.066312
vn 0.035460 0.000000 -0.093502
vn -0.012054 0.000000 -0.099271
vn -0.056806 0.000000 -0.082298
vn -0.088546 0.000000 -0.046472
vn 0.097094 0.000000 0.023932
vn 0.097094 0.000000 0.023932
vn 0.097094 0.000000 0.023932
vn 0.097094 0.000000 0.023932
vn -0.070711 0.070711 0.000000
vn -0.062611 0.070711 -0.032861
vn -0.040168 0.070711 -0.058194
vn -0.008523 0.070711 -0.070195
vn 0.025074 0.070711 -0.066116
vn 0.052928 0.070711 -0.046890
vn 0.068656 0.070711 -0.016922
vn 0.068656 0.070711 0.016922
vn 0.052928 0.070711 0.046890
vn 0.025074 0.070711 0.066116
vn -0.008523 0.070711 0.070195
vn -0.040168 0.070711 0.058194
vn -0.062611 0.070711 0.032861
vn -0.070711 0.070711 0.000000
vn -0.063708 0.070711 0.030680
vn -0.044087 0.070711 0.055284
vn -0.015735 0.070711 0.068938
vn 0.015735 0.070711 0.068938
vn 0.044087 0.070711 0.055284
vn 0.063708 0.070711 0.030680
vn 0.070711 0.070711 0.000000
vn 0.063708 0.070711 -0.030680
vn 0.044087 0.070711 -0.055284
vn 0.015735 0.070711 -0.068938
vn -0.015735 0.070711 -0.068938
vn -0.044087 0.070711 -0.055284
vn -0.063708 0.070711 -0.030680
vn 0.068656 0.070711 -0.016922
vn 0.068656 0.070711 -0.016922
vn 0.070711 0.070711 0.000000
vn 0.070711 0.070711 0.000000
vn 0.000000 0.100000 0.000000
vn 0.000000 0.100000 0.000000
vn 0.000000 0.100000 0.000000
vn 0.000000 0.100000 0.000000
vn 0.000000 0.100000 0.000000
vn 0.000000 0.100000 0.000000
vn 0.000000 0.100000 0.000000
vn 0.000000 0.100000 0.000000
vn 0.000000 0.100000 0.000000
vn 0.000000 0.100000 0.000000
vn 0.000000 0.100000 0.000000
vn 0.000000 0.100000 0.000000
vn 0.000000 0.100000 0.000000
vn 0.000000 0.100000 0.000000
vn 0.000000 0.100000 0.000000
vn 0.000000 0.100000 0.000000
vn 0.000000 0.100000 0.000000
vn 0.000000 0.100000 0.000000
vn 0.000000 0.100000 0.000000
vn 0.000000 0.100000 0.000000
vn 0.000000 0.100000 0.000000
vn 0.000000 0.100000 0.000000
vn 0.000000 0.100000 0.000000
vn 0.000000 0.100000 0.000000
vn 0.000000 0.100000 0.000000
vn 0.000000 0.100000 0.000000
vn 0.000000 0.100000 0.000000
vn 0.000000 0.100000 0.000000
vn 0.000000 0.100000 0.000000
vn 0.100000 0.000000 0.000000
vn 0.091355 0.000000 0.040674
vn 0.066913 0.000000 0.074314
vn 0.030902 0.000000 0.095106
vn -0.010453 0.000000 0.099452
vn -0.050000 0.000000 0.086603
vn -0.080902 0.000000 0.058779
vn -0.097815 0.000000 0.020791
vn -0.097815 0.000000 -0.020791
vn -0.080902 0.000000 -0.058779
vn -0.050000 0.000000 -0.086603
vn -0.010453 0.000000 -0.099452
vn 0.030902 0.000000 -0.095106
vn 0.066913 0.000000 -0.074314
vn 0.091355 0.000000 -0.040674
vn 0.100000 0.000000 0.000000
vn 0.091355 0.000000 -0.040674
vn 0.066913 0.000000 -0.074314
vn 0.030902 0.000000 -0.095106
vn -0.010453 0.000000 -0.099452
vn -0.050000 0.000000 -0.086603
vn -0.080902 0.000000 -0.058779
vn -0.097815 0.000000 -0.020791
vn -0.097815 0.000000 0.020791
vn -0.080902 0.000000 0.058779
vn -0.050000 0.000000 0.086603
vn -0.010453 0.000000 0.099452
vn 0.030902 0.000000 0.095106
vn 0.066913 0.000000 0.074314
vn 0.091355 0.000000 0.040674
vn -0.097815 0.000000 -0.020791
vn -0.097815 0.000000 -0.020791
vn -0.097815 0.000000 -0.020791
vn -0.097815 0.000000 -0.020791
vn 0.000000 -0.100000 0.000000
vn 0.000000 -0.100000 0.000000
vn 0.000000 -0.100000 0.000000
vn 0.000000 -0.100000 0.000000
vn 0.000000 -0.100000 0.000000
vn 0.000000 -0.100000 0.000000
vn 0.000000 -0.100000 0.000000
vn 0.000000 -0.100000 0.000000
vn 0.000000 -0.100000 0.000000
vn 0.000000 -0.100000 0.000000
vn 0.000000 -0.100000 0.000000
vn 0.000000 -0.100000 0.000000
vn 0.000000 -0.100000 0.000000
vn 0.000000 -0.100000 0.000000
vn 0.000000 -0.100000 0.000000
vn 0.000000 -0.100000 0.000000
vn 0.000000 -0.100000 0.000000
vn 0.000000 -0.100000 0.000000
vn 0.000000 -0.100000 0.000000
vn 0.000000 -0.100000 0.000000
vn 0.000000 -0.100000 0.000000
vn 0.000000 -0.100000 0.000000
vn 0.000000 -0.100000 0.000000
vn 0.000000 -0.100000 0.000000
vn 0.000000 -0.100000 0.000000
vn 0.000000 -0.100000 0.000000
vn 0.000000 -0.100000 0.000000
vn 0.000000 -0.100000 0.000000
vn 0.000000 -0.100000 0.000000
usemtl 191,191,191
f 71/14/14 77/1/1 75/15/15
f 75/15/15 77/1/1 72/2/2
f 75/15/15 72/2/2 68/27/27
f 68/27/27 72/2/2 60/3/3
f 68/27/27 60/3/3 56/26/26
f 56/26/26 60/3/3 48/4/4
f 56/26/26 48/4/4 44/25/25
f 44/25/25 48/4/4 36/5/5
f 44/25/25 36/5/5 32/24/24
f 32/24/24 36/5/5 24/6/6
f 32/24/24 24/6/6 20/23/23
f 20/23/23 24/6/6 16/7/7
f 20/23/23 16/7/7 12/22/22
f 12/22/22 16/7/7 5/28/28
f 12/22/22 5/29/29 11/21/21
f 11/30/30 5/8/8 15/9/9
f 11/31/31 15/9/9 19/20/20
f 19/20/20 15/9/9 23/10/10
f 19/20/20 23/10/10 31/19/19
f 31/19/19 23/10/10 35/11/11
f 31/19/19 35/11/11 43/18/18
f 43/18/18 35/11/11 47/12/12
f 43/18/18 47/12/12 55/17/17
f 55/17/17 47/12/12 59/13/13
f 55/17/17 59/13/13 67/16/16
f 67/16/16 59/13/13 71/14/14
f 67/16/16 71/14/14 75/15/15
f 68/33/33 76/45/45 75/32/32
f 75/32/32 76/45/45 69/46/46
f 75/32/32 69/46/46 67/44/44
f 67/44/44 69/46/46 57/47/47
f 67/44/44 57/47/47 55/43/43
f 55/43/43 57/47/47 45/48/48
f 55/43/43 45/48/48 43/42/42
f 43/42/42 45/48/48 33/49/49
f 43/42/42 33/49/49 31/41/41
f 31/41/41 33/49/49 21/50/50
f 31/41/41 21/50/50 19/40/40
f 19/40/40 21/50/50 13/58/58
f 19/40/40 13/59/59 11/39/39
f 11/60/60 13/51/51 14/52/52
f 11/61/61 14/52/52 12/38/38
f 12/38/38 14/52/52 22/53/53
f 12/38/38 22/53/53 20/37/37
f 20/37/37 22/53/53 34/54/54
f 20/37/37 34/54/54 32/36/36
f 32/36/36 34/54/54 46/55/55
f 32/36/36 46/55/55 44/35/35
f 44/35/35 46/55/55 58/56/56
f 44/35/35 58/56/56 56/34/34
f 56/34/34 58/56/56 70/57/57
f 56/34/34 70/57/57 68/33/33
f 68/33/33 70/57/57 76/45/45
f 70/63/63 74/88/88 76/62/62
f 76/62/62 74/88/88 78/75/75
f 76/62/62 78/75/75 73/76/76
f 74/88/88 70/63/63 62/87/87
f 62/87/87 70/63/63 58/64/64
f 62/87/87 58/64/64 50/86/86
f 50/86/86 58/64/64 46/65/65
f 50/86/86 46/65/65 38/85/85
f 38/85/85 46/65/65 34/66/66
f 38/85/85 34/66/66 26/84/84
f 26/84/84 34/66/66 22/67/67
f 26/84/84 22/67/67 18/83/83
f 18/83/83 22/67/67 14/89/89
f 18/83/83 14/90/90 6/82/82
f 6/91/91 14/68/68 13/69/69
f 6/92/92 13/69/69 17/81/81
f 17/81/81 13/69/69 21/70/70
f 17/81/81 21/70/70 25/80/80
f 25/80/80 21/70/70 33/71/71
f 25/80/80 33/71/71 37/79/79
f 37/79/79 33/71/71 45/72/72
f 37/79/79 45/72/72 49/78/78
f 49/78/78 45/72/72 57/73/73
f 49/78/78 57/73/73 61/77/77
f 61/77/77 57/73/73 69/74/74
f 61/77/77 69/74/74 73/76/76
f 73/76/76 69/74/74 76/62/62
f 74/94/94 82/121/121 78/93/93
f 78/93/93 82/121/121 84/107/107
f 78/93/93 84/107/107 81/108/108
f 82/121/121 74/94/94 66/120/120
f 66/120/120 74/94/94 62/95/95
f 66/120/120 62/95/95 54/119/119
f 54/119/119 62/95/95 50/96/96
f 54/119/119 50/96/96 42/118/118
f 42/118/118 50/96/96 38/97/97
f 42/118/118 38/97/97 30/117/117
f 30/117/117 38/97/97 26/98/98
f 30/117/117 26/98/98 10/116/116
f 10/116/116 26/98/98 18/99/99
f 10/116/116 18/99/99 4/115/115
f 4/115/115 18/99/99 6/100/100
f 4/115/115 6/100/100 3/114/114
f 3/114/114 6/100/100 17/101/101
f 3/114/114 17/101/101 9/113/113
f 9/113/113 17/101/101 25/102/102
f 9/113/113 25/102/102 29/112/112
f 29/112/112 25/102/102 37/103/103
f 29/112/112 37/103/103 41/111/111
f 41/111/111 37/103/103 49/104/104
f 41/111/111 49/104/104 53/110/110
f 53/110/110 49/104/104 61/105/105
f 53/110/110 61/105/105 65/109/109
f 65/109/109 61/105/105 73/106/106
f 65/109/109 73/106/106 81/108/108
f 81/108/108 73/106/106 78/93/93
f 82/123/123 83/137/137 84/122/122
f 84/122/122 83/137/137 79/138/138
f 84/122/122 79/138/138 81/136/136
f 81/136/136 79/138/138 63/139/139
f 81/136/136 63/139/139 65/135/135
f 65/135/135 63/139/139 51/140/140
f 65/135/135 51/140/140 53/134/134
f 53/134/134 51/140/140 39/141/141
f 53/134/134 39/141/141 41/133/133
f 41/133/133 39/141/141 27/142/142
f 41/133/133 27/142/142 29/132/132
f 29/132/132 27/142/142 7/143/143
f 29/132/132 7/143/143 9/131/131
f 9/131/131 7/143/143 1/152/152
f 9/131/131 1/153/153 3/130/130
f 3/154/154 1/144/144 2/145/145
f 3/155/155 2/145/145 4/129/129
f 4/129/129 2/145/145 8/146/146
f 4/129/129 8/146/146 10/128/128
f 10/128/128 8/146/146 28/147/147
f 10/128/128 28/147/147 30/127/127
f 30/127/127 28/147/147 40/148/148
f 30/127/127 40/148/148 42/126/126
f 42/126/126 40/148/148 52/149/149
f 42/126/126 52/149/149 54/125/125
f 54/125/125 52/149/149 64/150/150
f 54/125/125 64/150/150 66/124/124
f 66/124/124 64/150/150 80/151/151
f 66/124/124 80/151/151 82/123/123
f 82/123/123 80/151/151 83/137/137
f 79/170/170 83/156/156 77/171/171
f 77/171/171 83/156/156 80/157/157
f 77/171/171 80/157/157 72/184/184
f 72/184/184 80/157/157 64/158/158
f 72/184/184 64/158/158 60/183/183
f 60/183/183 64/158/158 52/159/159
f 60/183/183 52/159/159 48/182/182
f 48/182/182 52/159/159 40/160/160
f 48/182/182 40/160/160 36/181/181
f 36/181/181 40/160/160 28/161/161
f 36/181/181 28/161/161 24/180/180
f 24/180/180 28/161/161 8/162/162
f 24/180/180 8/162/162 16/179/179
f 16/179/179 8/162/162 2/163/163
f 16/179/179 2/163/163 5/178/178
f 5/178/178 2/163/163 1/164/164
f 5/178/178 1/164/164 15/177/177
f 15/177/177 1/164/164 7/165/165
f 15/177/177 7/165/165 23/176/176
f 23/176/176 7/165/165 27/166/166
f 23/176/176 27/166/166 35/175/175
f 35/175/175 27/166/166 39/167/167
f 35/175/175 39/167/167 47/174/174
f 47/174/174 39/167/167 51/168/168
f 47/174/174 51/168/168 59/173/173
f 59/173/173 51/168/168 63/169/169
f 59/173/173 63/169/169 71/172/172
f 71/172/172 63/169/169 79/170/170
f 71/172/172 79/170/170 77/171/171

# 84 vertices
# 184 texture params
# 184 normals
# 168 facets

# 1 groups
