# WaveFront *.obj file (generated by Autodesk ATF)

mtllib 80. Плунжер стопорный штоков.mtl

g Твердое тело1

v -4.500000 -4.705772 0.000000
v -4.500000 4.705772 0.000000
v -3.897114 -4.705772 -2.250000
v -3.897114 -4.705772 2.250000
v -3.897114 4.705772 -2.250000
v -3.897114 4.705772 2.250000
v -3.739254 -5.750000 -1.097944
v -3.739254 -5.750000 1.097944
v -3.739254 5.750000 -1.097944
v -3.739254 5.750000 1.097944
v -2.552067 -5.750000 -2.945243
v -2.552067 -5.750000 2.945243
v -2.552067 5.750000 -2.945243
v -2.552067 5.750000 2.945243
v -2.250000 -7.397114 0.000000
v -2.250000 -4.705772 -3.897114
v -2.250000 -4.705772 3.897114
v -2.250000 4.705772 -3.897114
v -2.250000 4.705772 3.897114
v -2.250000 7.397114 0.000000
v -1.948557 -6.875000 -2.250000
v -1.948557 -6.875000 2.250000
v -1.948557 6.875000 -2.250000
v -1.948557 6.875000 2.250000
v -0.554617 -5.750000 -3.857447
v -0.554617 -5.750000 3.857447
v -0.554617 5.750000 -3.857447
v -0.554617 5.750000 3.857447
v 0.000000 -8.000000 0.000000
v 0.000000 -7.397114 -2.250000
v 0.000000 -7.397114 2.250000
v 0.000000 -4.705772 -4.500000
v 0.000000 -4.705772 4.500000
v 0.000000 4.705772 -4.500000
v 0.000000 4.705772 4.500000
v 0.000000 7.397114 -2.250000
v 0.000000 7.397114 2.250000
v 0.000000 8.000000 0.000000
v 1.618920 -5.750000 -3.544940
v 1.618920 -5.750000 3.544940
v 1.618920 5.750000 -3.544940
v 1.618920 5.750000 3.544940
v 1.948557 -6.875000 -2.250000
v 1.948557 -6.875000 2.250000
v 1.948557 6.875000 -2.250000
v 1.948557 6.875000 2.250000
v 2.250000 -7.397114 0.000000
v 2.250000 -4.705772 -3.897114
v 2.250000 -4.705772 3.897114
v 2.250000 4.705772 -3.897114
v 2.250000 4.705772 3.897114
v 2.250000 7.397114 0.000000
v 3.278461 -5.750000 -2.106939
v 3.278461 -5.750000 2.106939
v 3.278461 5.750000 -2.106939
v 3.278461 5.750000 2.106939
v 3.897114 -5.750000 0.000000
v 3.897114 -4.705772 -2.250000
v 3.897114 -4.705772 2.250000
v 3.897114 4.705772 -2.250000
v 3.897114 4.705772 2.250000
v 3.897114 5.750000 0.000000
v 4.500000 -4.705772 0.000000
v 4.500000 4.705772 0.000000
vt -0.000000 0.235619 0.000000
vt 0.219268 0.270662 0.000000
vt 0.408227 0.426190 0.000000
vt 0.463423 0.815614 0.000000
vt 0.321084 1.088557 0.000000
vt 0.110914 1.169958 0.000000
vt -0.110914 1.169958 0.000000
vt -0.321084 1.088557 0.000000
vt -0.463423 0.815614 0.000000
vt -0.408227 0.426190 0.000000
vt -0.219268 0.270662 0.000000
vt -0.235619 0.706858 0.000000
vt 0.235619 0.706858 0.000000
vt 0.235619 0.471239 0.000000
vt -0.000000 0.471239 0.000000
vt -0.235619 0.471239 0.000000
vt -0.000000 0.706858 0.000000
vt 0.235619 0.942478 0.000000
vt -0.000000 0.942478 0.000000
vt -0.235619 0.942478 0.000000
vt 0.060289 0.000000 0.000000
vt 0.060289 0.239821 0.000000
vt 0.060289 0.479642 0.000000
vt 0.060289 0.719463 0.000000
vt 0.060289 0.959284 0.000000
vt 0.060289 -1.438926 0.000000
vt 0.060289 -1.199105 0.000000
vt 0.060289 -0.959284 0.000000
vt 0.060289 -0.719463 0.000000
vt 0.060289 -0.479642 0.000000
vt 0.060289 -0.239821 0.000000
vt -0.060289 0.000000 0.000000
vt -0.060289 -0.219836 0.000000
vt -0.060289 -0.439672 0.000000
vt -0.060289 -0.659508 0.000000
vt -0.060289 -0.879344 0.000000
vt -0.060289 -1.099180 0.000000
vt -0.060289 1.319016 0.000000
vt -0.060289 1.099180 0.000000
vt -0.060289 0.879344 0.000000
vt -0.060289 0.659508 0.000000
vt -0.060289 0.439672 0.000000
vt -0.060289 0.219836 0.000000
vt 0.060289 1.199105 0.000000
vt 0.060289 1.199105 0.000000
vt -0.060289 -1.319016 0.000000
vt -0.060289 -1.319016 0.000000
vt 0.470577 0.000000 0.000000
vt 0.470577 0.235619 0.000000
vt 0.470577 0.471239 0.000000
vt 0.470577 0.706858 0.000000
vt 0.470577 0.942478 0.000000
vt 0.470577 1.178097 0.000000
vt 0.470577 -1.413717 0.000000
vt 0.470577 -1.178097 0.000000
vt 0.470577 -0.942478 0.000000
vt 0.470577 -0.706858 0.000000
vt 0.470577 -0.471239 0.000000
vt 0.470577 -0.235619 0.000000
vt -0.470577 0.000000 0.000000
vt -0.470577 -0.235619 0.000000
vt -0.470577 -0.471239 0.000000
vt -0.470577 -0.706858 0.000000
vt -0.470577 -0.942478 0.000000
vt -0.470577 -1.178097 0.000000
vt -0.470577 1.413717 0.000000
vt -0.470577 1.178097 0.000000
vt -0.470577 0.942478 0.000000
vt -0.470577 0.706858 0.000000
vt -0.470577 0.471239 0.000000
vt -0.470577 0.235619 0.000000
vt -0.470577 -1.413717 0.000000
vt 0.470577 1.413717 0.000000
vt 0.060289 0.000000 0.000000
vt 0.060289 0.219836 0.000000
vt 0.060289 0.439672 0.000000
vt 0.060289 0.659508 0.000000
vt 0.060289 0.879344 0.000000
vt 0.060289 1.099180 0.000000
vt 0.060289 -1.319016 0.000000
vt 0.060289 -1.099180 0.000000
vt 0.060289 -0.879344 0.000000
vt 0.060289 -0.659508 0.000000
vt 0.060289 -0.439672 0.000000
vt 0.060289 -0.219836 0.000000
vt -0.060289 0.000000 0.000000
vt -0.060289 -0.239821 0.000000
vt -0.060289 -0.479642 0.000000
vt -0.060289 -0.719463 0.000000
vt -0.060289 -0.959284 0.000000
vt -0.060289 1.438926 0.000000
vt -0.060289 1.199105 0.000000
vt -0.060289 0.959284 0.000000
vt -0.060289 0.719463 0.000000
vt -0.060289 0.479642 0.000000
vt -0.060289 0.239821 0.000000
vt 0.060289 1.319016 0.000000
vt 0.060289 1.319016 0.000000
vt -0.060289 -1.199105 0.000000
vt -0.060289 -1.199105 0.000000
vt -0.000000 -0.235619 0.000000
vt -0.219268 -0.270662 0.000000
vt -0.408227 -0.426190 0.000000
vt -0.463423 -0.815614 0.000000
vt -0.321084 -1.088557 0.000000
vt -0.110914 -1.169958 0.000000
vt 0.110914 -1.169958 0.000000
vt 0.321084 -1.088557 0.000000
vt 0.463423 -0.815614 0.000000
vt 0.408227 -0.426190 0.000000
vt 0.219268 -0.270662 0.000000
vt -0.235619 -0.706858 0.000000
vt 0.235619 -0.706858 0.000000
vt -0.235619 -0.471239 0.000000
vt -0.000000 -0.471239 0.000000
vt 0.235619 -0.471239 0.000000
vt -0.000000 -0.706858 0.000000
vt -0.235619 -0.942478 0.000000
vt -0.000000 -0.942478 0.000000
vt 0.235619 -0.942478 0.000000
vn 0.086603 0.050000 0.000000
vn 0.072855 0.050000 -0.046821
vn 0.035976 0.050000 -0.078776
vn -0.012325 0.050000 -0.085721
vn -0.056713 0.050000 -0.065450
vn -0.083095 0.050000 -0.024399
vn -0.083095 0.050000 0.024399
vn -0.056713 0.050000 0.065450
vn -0.012325 0.050000 0.085721
vn 0.035976 0.050000 0.078776
vn 0.072855 0.050000 0.046821
vn 0.000000 0.086603 0.050000
vn 0.000000 0.086603 -0.050000
vn 0.043301 0.075000 -0.050000
vn 0.050000 0.086603 0.000000
vn 0.043301 0.075000 0.050000
vn 0.000000 0.100000 0.000000
vn -0.043301 0.075000 -0.050000
vn -0.050000 0.086603 0.000000
vn -0.043301 0.075000 0.050000
vn 0.086603 0.050000 0.000000
vn 0.072855 0.050000 0.046821
vn 0.035976 0.050000 0.078776
vn -0.012325 0.050000 0.085721
vn -0.056713 0.050000 0.065450
vn -0.083095 0.050000 0.024399
vn -0.083095 0.050000 -0.024399
vn -0.056713 0.050000 -0.065450
vn -0.012325 0.050000 -0.085721
vn 0.035976 0.050000 -0.078776
vn 0.072855 0.050000 -0.046821
vn 0.086603 0.050000 0.000000
vn 0.075000 0.050000 -0.043301
vn 0.043301 0.050000 -0.075000
vn 0.000000 0.050000 -0.086603
vn -0.043301 0.050000 -0.075000
vn -0.075000 0.050000 -0.043301
vn -0.086603 0.050000 0.000000
vn -0.075000 0.050000 0.043301
vn -0.043301 0.050000 0.075000
vn 0.000000 0.050000 0.086603
vn 0.043301 0.050000 0.075000
vn 0.075000 0.050000 0.043301
vn -0.083095 0.050000 0.024399
vn -0.083095 0.050000 0.024399
vn -0.086603 0.050000 0.000000
vn -0.086603 0.050000 0.000000
vn 0.100000 0.000000 0.000000
vn 0.086603 0.000000 0.050000
vn 0.050000 0.000000 0.086603
vn 0.000000 0.000000 0.100000
vn -0.050000 0.000000 0.086603
vn -0.086603 0.000000 0.050000
vn -0.100000 0.000000 0.000000
vn -0.086603 0.000000 -0.050000
vn -0.050000 0.000000 -0.086603
vn 0.000000 0.000000 -0.100000
vn 0.050000 0.000000 -0.086603
vn 0.086603 0.000000 -0.050000
vn 0.100000 0.000000 0.000000
vn 0.086603 0.000000 -0.050000
vn 0.050000 0.000000 -0.086603
vn 0.000000 0.000000 -0.100000
vn -0.050000 0.000000 -0.086603
vn -0.086603 0.000000 -0.050000
vn -0.100000 0.000000 0.000000
vn -0.086603 0.000000 0.050000
vn -0.050000 0.000000 0.086603
vn 0.000000 0.000000 0.100000
vn 0.050000 0.000000 0.086603
vn 0.086603 0.000000 0.050000
vn -0.100000 0.000000 0.000000
vn -0.100000 0.000000 0.000000
vn 0.086603 -0.050000 0.000000
vn 0.075000 -0.050000 0.043301
vn 0.043301 -0.050000 0.075000
vn 0.000000 -0.050000 0.086603
vn -0.043301 -0.050000 0.075000
vn -0.075000 -0.050000 0.043301
vn -0.086603 -0.050000 0.000000
vn -0.075000 -0.050000 -0.043301
vn -0.043301 -0.050000 -0.075000
vn 0.000000 -0.050000 -0.086603
vn 0.043301 -0.050000 -0.075000
vn 0.075000 -0.050000 -0.043301
vn 0.086603 -0.050000 0.000000
vn 0.072855 -0.050000 -0.046821
vn 0.035976 -0.050000 -0.078776
vn -0.012325 -0.050000 -0.085721
vn -0.056713 -0.050000 -0.065450
vn -0.083095 -0.050000 -0.024399
vn -0.083095 -0.050000 0.024399
vn -0.056713 -0.050000 0.065450
vn -0.012325 -0.050000 0.085721
vn 0.035976 -0.050000 0.078776
vn 0.072855 -0.050000 0.046821
vn -0.086603 -0.050000 0.000000
vn -0.086603 -0.050000 0.000000
vn -0.083095 -0.050000 -0.024399
vn -0.083095 -0.050000 -0.024399
vn 0.086603 -0.050000 0.000000
vn 0.072855 -0.050000 0.046821
vn 0.035976 -0.050000 0.078776
vn -0.012325 -0.050000 0.085721
vn -0.056713 -0.050000 0.065450
vn -0.083095 -0.050000 0.024399
vn -0.083095 -0.050000 -0.024399
vn -0.056713 -0.050000 -0.065450
vn -0.012325 -0.050000 -0.085721
vn 0.035976 -0.050000 -0.078776
vn 0.072855 -0.050000 -0.046821
vn 0.000000 -0.086603 0.050000
vn 0.000000 -0.086603 -0.050000
vn 0.043301 -0.075000 0.050000
vn 0.050000 -0.086603 0.000000
vn 0.043301 -0.075000 -0.050000
vn 0.000000 -0.100000 0.000000
vn -0.043301 -0.075000 0.050000
vn -0.050000 -0.086603 0.000000
vn -0.043301 -0.075000 -0.050000
usemtl 191,191,191
f 56/11/11 62/1/1 52/15/15
f 52/15/15 62/1/1 55/2/2
f 52/15/15 55/2/2 45/14/14
f 45/14/14 55/2/2 41/3/3
f 45/14/14 41/3/3 36/13/13
f 36/13/13 41/3/3 27/4/4
f 36/13/13 27/4/4 23/18/18
f 23/18/18 27/4/4 13/5/5
f 23/18/18 13/5/5 9/6/6
f 23/18/18 9/6/6 20/19/19
f 20/19/19 9/6/6 10/7/7
f 20/19/19 10/7/7 24/20/20
f 24/20/20 10/7/7 14/8/8
f 24/20/20 14/8/8 28/9/9
f 24/20/20 28/9/9 37/12/12
f 37/12/12 28/9/9 42/10/10
f 37/12/12 42/10/10 46/16/16
f 46/16/16 42/10/10 56/11/11
f 46/16/16 56/11/11 52/15/15
f 37/12/12 46/16/16 52/15/15
f 52/15/15 45/14/14 38/17/17
f 38/17/17 45/14/14 36/13/13
f 38/17/17 36/13/13 20/19/19
f 20/19/19 36/13/13 23/18/18
f 20/19/19 24/20/20 38/17/17
f 38/17/17 24/20/20 37/12/12
f 38/17/17 37/12/12 52/15/15
f 56/22/22 61/43/43 62/21/21
f 62/21/21 61/43/43 64/32/32
f 62/21/21 64/32/32 60/33/33
f 61/43/43 56/22/22 51/42/42
f 51/42/42 56/22/22 42/23/23
f 51/42/42 42/23/23 35/41/41
f 35/41/41 42/23/23 28/24/24
f 35/41/41 28/24/24 19/40/40
f 19/40/40 28/24/24 14/25/25
f 19/40/40 14/25/25 6/39/39
f 6/39/39 14/25/25 10/44/44
f 6/39/39 10/45/45 2/38/38
f 2/46/46 10/26/26 9/27/27
f 2/47/47 9/27/27 5/37/37
f 5/37/37 9/27/27 13/28/28
f 5/37/37 13/28/28 18/36/36
f 18/36/36 13/28/28 27/29/29
f 18/36/36 27/29/29 34/35/35
f 34/35/35 27/29/29 41/30/30
f 34/35/35 41/30/30 50/34/34
f 50/34/34 41/30/30 55/31/31
f 50/34/34 55/31/31 60/33/33
f 60/33/33 55/31/31 62/21/21
f 61/49/49 59/71/71 64/48/48
f 64/48/48 59/71/71 63/60/60
f 64/48/48 63/60/60 60/59/59
f 60/59/59 63/60/60 58/61/61
f 60/59/59 58/61/61 50/58/58
f 50/58/58 58/61/61 48/62/62
f 50/58/58 48/62/62 34/57/57
f 34/57/57 48/62/62 32/63/63
f 34/57/57 32/63/63 18/56/56
f 18/56/56 32/63/63 16/64/64
f 18/56/56 16/64/64 5/55/55
f 5/55/55 16/64/64 3/65/65
f 5/55/55 3/65/65 2/54/54
f 2/54/54 3/65/65 1/72/72
f 2/73/73 1/66/66 6/53/53
f 6/53/53 1/66/66 4/67/67
f 6/53/53 4/67/67 19/52/52
f 19/52/52 4/67/67 17/68/68
f 19/52/52 17/68/68 35/51/51
f 35/51/51 17/68/68 33/69/69
f 35/51/51 33/69/69 51/50/50
f 51/50/50 33/69/69 49/70/70
f 51/50/50 49/70/70 61/49/49
f 61/49/49 49/70/70 59/71/71
f 58/85/85 63/74/74 57/86/86
f 57/86/86 63/74/74 59/75/75
f 57/86/86 59/75/75 54/96/96
f 54/96/96 59/75/75 49/76/76
f 54/96/96 49/76/76 40/95/95
f 40/95/95 49/76/76 33/77/77
f 40/95/95 33/77/77 26/94/94
f 26/94/94 33/77/77 17/78/78
f 26/94/94 17/78/78 12/93/93
f 12/93/93 17/78/78 4/79/79
f 12/93/93 4/79/79 8/92/92
f 8/92/92 4/79/79 1/97/97
f 8/92/92 1/98/98 7/91/91
f 7/99/99 1/80/80 3/81/81
f 7/100/100 3/81/81 11/90/90
f 11/90/90 3/81/81 16/82/82
f 11/90/90 16/82/82 25/89/89
f 25/89/89 16/82/82 32/83/83
f 25/89/89 32/83/83 39/88/88
f 39/88/88 32/83/83 48/84/84
f 39/88/88 48/84/84 53/87/87
f 53/87/87 48/84/84 58/85/85
f 53/87/87 58/85/85 57/86/86
f 53/111/111 57/101/101 47/115/115
f 47/115/115 57/101/101 54/102/102
f 47/115/115 54/102/102 44/114/114
f 44/114/114 54/102/102 40/103/103
f 44/114/114 40/103/103 31/112/112
f 31/112/112 40/103/103 26/104/104
f 31/112/112 26/104/104 22/118/118
f 22/118/118 26/104/104 12/105/105
f 22/118/118 12/105/105 8/106/106
f 22/118/118 8/106/106 15/119/119
f 15/119/119 8/106/106 7/107/107
f 15/119/119 7/107/107 21/120/120
f 21/120/120 7/107/107 11/108/108
f 21/120/120 11/108/108 25/109/109
f 21/120/120 25/109/109 30/113/113
f 30/113/113 25/109/109 39/110/110
f 30/113/113 39/110/110 43/116/116
f 43/116/116 39/110/110 53/111/111
f 43/116/116 53/111/111 47/115/115
f 30/113/113 43/116/116 47/115/115
f 47/115/115 44/114/114 29/117/117
f 29/117/117 44/114/114 31/112/112
f 29/117/117 31/112/112 15/119/119
f 15/119/119 31/112/112 22/118/118
f 15/119/119 21/120/120 29/117/117
f 29/117/117 21/120/120 30/113/113
f 29/117/117 30/113/113 47/115/115

# 64 vertices
# 120 texture params
# 120 normals
# 124 facets

# 1 groups
